<svg id="Layer_1" data-name="Layer 1" xmlns="http://www.w3.org/2000/svg" width="12.0867cm" height="5.5018cm" viewBox="0 0 342.6162 155.9558"><title>penang</title><path d="M1.6362,127.5242l.128.2012-1.6089,1.71L0,129.2888l.05.585c1.7554-.1191,1.5132.8135,2.4639,1.3438l.2651-1.2061,1.1606.53-.1005.1728.3886-.0361c.1416-.7861,4.2144-5.5859,4.9781-5.7139.2788-1.9472,4.37-3.373,5.21-5.3476l.5991.1279c.69-1.2432,2.1709-2.1572,3.2-3.2363,1.3575-1.4356,2.7012-.5117,3.085-3.1719l1.1611-.1006c1.1519-.1006,1.4263-.4941,2.4869-.6123l.0869.9775c.059.6768-.3614.3291-.3018,1.0059l.0317.3838a11.3872,11.3872,0,0,0,.7408,2.5508c.146.5117.0913.9687.2651,1.3984.2378.6035.5483.43.603.9961l.0645.7774.3931-.0362.05.585a10.8587,10.8587,0,0,0,1.2662,2.9892c.5849,1.1885.7128,1.4629,1.3344,2.9161.4253.997,2.4317,4.69,2.5235,5.7685.018.2109-.3477.4668-.2837,1.207l.0552.585,3.9262.2744a4.1884,4.1884,0,0,0,3.57-1.7187,26.82,26.82,0,0,1-2.77-3.5469c-.6489-1.27-2.0019-1.8281-2.1938-4.041l-1.1338-2.1944-1.856-2.7236-.16.1094.1279-1.18-.8364-.1455c-.0049-.7588.146-.4668.1093-.97-.1782-1.9834-1.5537-1.91-2.2031-3.6016-.6216-1.627-.873-2.7148-.0454-4.2139,2.7422-.247,4.3149-1.92,5.8779-2.0849.1919-.4571.4209-1.2071,1.0606-1.2618l.1968-.0273c1.9834-.1738,2.1982-.7773,3.0576-.85l.5805-.0557a8.7322,8.7322,0,0,0,.4571,5.2481l.9736-.0821c.1919-1.1064,1.1016-3.0537.9829-4.3974a6.4713,6.4713,0,0,0-.5713-2.1026l4.3516-2.5693.8774-.2373a5.546,5.546,0,0,1,6.1939-.7314c3.7661-.3291,8.0493-2.6329,11.436-1.1973L65.84,109.031c.0043.5391-2.0845,1.4893.041,4.1221a5.635,5.635,0,0,0,.9463,2.7432c.4751.6943.4477,1.9013.7451,2.7422a24.9824,24.9824,0,0,1,1.0283,2.4228,3.5444,3.5444,0,0,0,1.4624,1.9014c.5669,6.4638,3.8125,15.706,10.6553,14.8554,1.0283-.1279,2.747-.3193,2.6372-1.5449-.0318-.3838-.85-.95-1.23-1.956a20.1518,20.1518,0,0,0-1.001-2.0391c-.54-1.0693-.9326-3.5742-1.4355-4.7168-1.17-2.706-1.9195-7.0029-2.7974-9.3066a102.1826,102.1826,0,0,1-2.5962-9.9922c-.7681-3.209-1.39-7.3223-1.938-10.54l1.0147-1.5175-.1827-.1192c.8912-.0732,1.106-.3662,1.7276-.3476l4.1094.1006c.311-.0635.9829-.5665,1.33-.5762l2.34-.0274.978-.0634c3.8765-.3389,7.1265-1.4541,11.7568-2.0118a58.028,58.028,0,0,0,5.9327-1.499c2.7929-.9873,3.1816.1465,4.26-2.7148-.32-.4942-1.0786-1.1153-1.1108-1.4717-.0225-.2744.2334-.4121.5532-.44,1.0146-.082,1.4536,1.2432,3.2226,1.0879l.9737-.082c2.331-.21,2.6694-2.1846,3.9033-2.2949l.9692-.0908,1.3667-.0372c.4527-.1093.2286-.0361.7906.0459.2285-.43.5351-.5576.4936-1.0234-.0913-1.043-1.6958-2.6328-2.2763-3.291-1.1334-1.2617-1.3667-1.6279-3.4419-1.6729-2.6695-.0732-6.8379-.7871-9.4341-.5586l-.5991-.3652c-2.55.2559-3.6475-.9053-5.1744-1.9746-1.5722-1.0967-2.5962-2.4775-3.9126-3.2637a40.7359,40.7359,0,0,1-4.05-3.3164c-1.3574-1.1338-2.4726-2.2392-3.8213-3.3818a74.5384,74.5384,0,0,0-8.2094-6.29,14.9014,14.9014,0,0,1-4.1641-3.19c-.7314-.74-4.0454-2.0478-4.1274-3.0117l-.2012-2.332-.2466-3.89L66.53,37.1961l-.169-1.5449c-.4755-2.4869-1.2983-16.0533-.832-19.376a57.1234,57.1234,0,0,0,.64-9.3662c-.21-2.1485.2739-2.9619-.7955-4.6167C64.7974,1.3968,63.8013-.1164,62.43.0071l-.7725.064c-2.0341.1782-4.3466,4.2373-5.1694,5.7319l-.0645,1.7642c-1.8374.6767-1.8647,7.5058-1.6679,9.7363.1416,1.5815-.375,3.68-.2012,5.686a35.0531,35.0531,0,0,1,.3882,5.2657,29.9329,29.9329,0,0,0,.4346,5.65,61.0463,61.0463,0,0,1,.7817,6.1616l-.06,1.9565c-.3886.7676-.5625,2.3994-1.5083,2.4864-1.769.1508-2.6513-.8868-4.105-1.3257-1.17-.3565-2.8432-.8819-3.9492-1.2979-.3017.7222-.8823,1.0513-.8,2.0249l.0181.1963c.1875,2.144.8227,5.01,2.77,4.8408.4116-.0322.2515-.0908.7588-.2607l2.377,1.8877a12.1026,12.1026,0,0,1-1.1475,3.8174C50.18,55,49.686,57.07,49.3936,57.948c-.5625,1.71-1.6275,6.043-2.2217,7.3135-.5576,1.1973-1.5542,5.8877-1.9653,7.5283-.3292,1.3467-.544,2.6631-.9,3.9151a22.1792,22.1792,0,0,0-1.0562,3.62l-.5806.0459a21.0164,21.0164,0,0,1-3.99-1.253c-1.2617-.5576-2.916-.5576-4.1138-1.0966a54.9665,54.9665,0,0,0-8.5019-1.8741c-.4116.0362-.2515.0909-.7588.2647-.832-1.0332-2.5049-1.16-2.3584-3.041a13.7626,13.7626,0,0,0-.0278-4.8555c-.0728-.3105-.1368-4.3008-.105-4.9814.0825-1.9971.4023-2.02.1831-4.5254-.3247-.4073-2.1987-1.961-2.7109-1.92l-.7769.0732c-3.1177.2744-3.7847,4.832-3.6021,7.9492.1006,1.5947-.7221,3.4238-.43,4.9961.247,1.3936-.1827,3.6543-.0547,5.208l-1.9243-.4482L11.46,73.7976C11.4,75.9,12.5244,76.742,14.06,77.5916l1.3579-.1192a14.0405,14.0405,0,0,1,.7129,3.6485l-.2334,2.751.1006.2011.2563-.0088.1187,4.0957-.2149.0088c.0137.3936.4434.2012.8091.3106l-.6489.7412-.023.5029.3887-.0459-.32,1.0967a17.7438,17.7438,0,0,1-1.8189,5.3848c-.727,1.4082-1.4355,3.7568-2.5688,4.498.0273.0547-.2564,4.1133-.4253,5.0459a28.5351,28.5351,0,0,1-1.3574,4.4336c-.6221,1.5449-.7222,2.9619-1.3623,4.6172-.3658.95-1.5816,3.4736-1.5083,4.3057.0229.2832.9047,1.4531.96,2.0654a2.79,2.79,0,0,1-.4619,1.4082c-1.92-.2285-1.1016,2.6328-2.7241,2.3955l-1.6641,2.02-.1689-.2842-.6675,1.2715-.96-.4121Zm13.146-13.1c-.2422,1.2617-2.2851,3.9853-3.2085,4.0674l-.5805.0459a22.8275,22.8275,0,0,1,.5532-3.666,15.1452,15.1452,0,0,0,.9048-3.3819c.375-2.3135.5576-5.11.8413-7.3867.1367-1.0977,1.5537-4.8906,2.02-6.3994.3247-1.0606.8643-2.2031,1.1841-3.1445.105-.3116.9048-3.09.9184-3.1817,1.417.2471,1.856,3.3,1.9659,4.5254a30.2553,30.2553,0,0,0,1.0879,4.8994c.3378.9424.3378,1.9112.6948,2.6153.6948,1.371,1.1606-.668,1.3618,1.6l1.5176.96-.0366,2.0293a5.8011,5.8011,0,0,1-2.0113,2.1485l-.58.0459-.0961.8046-1.2344-.2841c-.5664.5761-2.3311.9785-2.8291,1.5634-.5625.6856-.9829,1.7276-1.6958,2.5323l-.7774-.3926Zm.7222.8867-.5347.64-.21-.1827.7446-.457Zm8.1821-18.97a13.9233,13.9233,0,0,0-.1919-4.5069c-.1831-1.0419.2012-2.496.0547-4.123l-.0136-.1924c-.1143-1.2978-1.3028-8.8857.1875-9.0137a13.9318,13.9318,0,0,1,2.354.8409c.59.1562,2.1528.3388,2.6923.4394a23.0171,23.0171,0,0,1,4.7124,1.4531c1.9156.7686,8.4336,1.6827,8.6211,3.876.0591.6494-1.4126,5.8418-1.65,7.0674-.5942,3.0527-.1645,4.415-2.55,6.125a27.4884,27.4884,0,0,0-2.3223,2.1934c-.8775.7773-1.9976.6953-2.8154,1.7744-.21.2832-4.6993,3.52-5.2525,3.8662l-1.3667.0459-1.01-4.2969.2788-.1006-.6309-.53a2.1084,2.1084,0,0,0,.2466-1.16L24.93,98.9383c-.041-.4395-.1963-.4121-.457-.7412L24.3994,97l-.7129-.6582Zm21.7759-.8594c-1.3984,1.125-1.938.1191-3.5015,1.3809-.5849-.43,1.9019-10.3311,2.1031-11.73l1.5537-.1367c.3979,1.0966,4.3149,1.92,5.499,2.45.5713.2558,1.8145,1.16,2.5552,1.4531,1.0469.4209,2.249.247,2.4043,1.6455L49.64,93.69l-.8955.2285c-.896.7227-2.4272.8692-3.2822,1.5635Zm-.06-13.53-.123-.8408c-.0459-.4932,3.5742-13.957,4.0361-15.4932.5669-1.874,4.2095-14.17,5.2886-14.2656l.1919-.0185c.32-.0274,2.1621,2.1582,2.2944,2.414.5943,1.1289.43,2.0381.5669,3.3965l.1646,2.7285.2744,2.3223L61.2,87.94c-.0913,0-6.1343-2.6514-6.623-2.9072a69.7926,69.7926,0,0,0-6.93-2.3858l-2.2447-.6953Zm26.95-20.0273c2.13.3066,6.98,6.0068,9.0142,7.2637.2607.1591,4.3149,3.6152,4.4111,3.7529.85,1.2314,3.7115,3.6269,3.9536,4.2851-.8.4844-4.3286.6485-5.1147,1.0879-1.3716.7862-3.4834,1.2334-4.16,2.459a2.7918,2.7918,0,0,1,.2744.96c.05.52-1.1518,1.27-1.4443,1.3066l-.7817.0283-1.7735.0274-6.4956,1.3252-.105-.1924L67.9605,60.9422l.0322-.3975-.2149-1.7373c.9185-.0088,4.4336,2.3135,4.5752,3.1172Zm6.2032,28.4111c.2465.1094.2236.1826.5986.1455.7178-.0722,3.5518-.95,4.5664-1.206a27.6056,27.6056,0,0,1,5.06-.6123c1.5039-.0645,3.0854-.8418,4.8042-1.0059s3.3916-.64,4.8452-.43l.05.2471L88.667,89.43l-.06-.2011-.498.4941-.06-.1924L75.5391,91.9353l-.521.4659c-.2466-.1094-.2241-.1739-.6035-.1456-.2652.0274-.42.4473-.5074.5391l-2.6645-.5117.5849-.5762C72.8608,92.1365,77.4224,91.0672,78.5562,90.3357Z" fill="#fff" fill-rule="evenodd"/><path d="M74.5108,22.3269A17.7438,17.7438,0,0,1,79.8906,9.3a18.4574,18.4574,0,0,1,26.0591,0,17.7165,17.7165,0,0,1,5.3892,13.0273A17.7334,17.7334,0,0,1,105.95,35.3587a18.4576,18.4576,0,0,1-26.0591,0,17.7607,17.7607,0,0,1-5.38-13.0318Zm11.0478,0a7.3638,7.3638,0,1,0,14.7275,0,7.3638,7.3638,0,1,0-14.7275,0Z" fill="#fff" fill-rule="evenodd"/><path d="M114.5977,127.9363v-2.5049h6.477v5.9239a8.329,8.329,0,0,1-2.7378,1.6084,9.8868,9.8868,0,0,1-3.6294.6953,8.103,8.103,0,0,1-4.0727-.9786,6.257,6.257,0,0,1-2.6055-2.7968,9.0386,9.0386,0,0,1-.873-3.9678,8.541,8.541,0,0,1,.9736-4.1318,6.5239,6.5239,0,0,1,2.8525-2.7705,7.7208,7.7208,0,0,1,3.565-.7315,7.1248,7.1248,0,0,1,4.3242,1.1524,5.2155,5.2155,0,0,1,2.0019,3.208l-2.98.5576a3.1831,3.1831,0,0,0-1.1792-1.7276,3.6114,3.6114,0,0,0-2.167-.6308,4.0791,4.0791,0,0,0-3.1353,1.2431,5.26,5.26,0,0,0-1.1611,3.7032,5.8063,5.8063,0,0,0,1.1792,3.9765,3.907,3.907,0,0,0,3.0806,1.3252,5.2317,5.2317,0,0,0,1.9018-.3652,6.5262,6.5262,0,0,0,1.627-.9053v-1.8828Zm9.33,5.4668V118.6482h2.9985v12.25h7.4687v2.5049Zm12.0029-7.3408a9.4781,9.4781,0,0,1,.6767-3.8213,7.1013,7.1013,0,0,1,1.39-2.0391,5.79,5.79,0,0,1,1.9194-1.3349,8.0065,8.0065,0,0,1,3.209-.585,6.9794,6.9794,0,0,1,5.2656,2.0293A9.13,9.13,0,0,1,148.4,131.63a7.8353,7.8353,0,0,1-10.5132.0088,7.7161,7.7161,0,0,1-1.9565-5.5762Zm3.0947-.11a5.6292,5.6292,0,0,0,1.1655,3.84,3.8065,3.8065,0,0,0,2.9668,1.2978,3.7564,3.7564,0,0,0,2.9483-1.2978,7.0764,7.0764,0,0,0,.0273-7.6973,3.7679,3.7679,0,0,0-2.9756-1.2529,3.8167,3.8167,0,0,0-2.9941,1.27,5.6191,5.6191,0,0,0-1.1382,3.84Zm13.69-7.4228h5.9511a16.8646,16.8646,0,0,1,2.6328.1465,3.7269,3.7269,0,0,1,2.6924,1.8554,3.3312,3.3312,0,0,1,.4571,1.7373,3.5252,3.5252,0,0,1-2.0889,3.2364,3.8751,3.8751,0,0,1,2.0889,1.3437,3.5645,3.5645,0,0,1,.727,2.2393,4.3935,4.3935,0,0,1-.4663,1.9844,4.0525,4.0525,0,0,1-1.2891,1.5263,4.3563,4.3563,0,0,1-2.0156.7041c-.4985.0547-1.7051.0908-3.625.1006h-5.0644v-14.874Zm3.0078,2.4678v3.4472h1.9653c1.17,0,1.9014-.0185,2.1851-.0556a1.9644,1.9644,0,0,0,1.2109-.53,1.5585,1.5585,0,0,0,.439-1.16,1.6653,1.6653,0,0,0-.375-1.125,1.727,1.727,0,0,0-1.1289-.52c-.3018-.0371-1.1612-.0556-2.5733-.0556Zm0,5.9248v3.9765h2.7788a11.9477,11.9477,0,0,0,2.0571-.0918,1.862,1.862,0,0,0,1.0972-.5937,1.839,1.839,0,0,0,.42-1.2617,1.91,1.91,0,0,0-.3291-1.1338,1.818,1.818,0,0,0-.937-.6856,10.0251,10.0251,0,0,0-2.6651-.21Zm25.414,6.4814h-3.2724l-1.2989-3.3828h-5.9463l-1.2294,3.3828h-3.1861l5.8-14.874h3.1729l5.96,14.874Zm-5.53-5.8877-2.0528-5.5215-2.0068,5.5215Zm7.2031,5.8877V118.6482h3.0029v12.25h7.4736v2.5049Zm21.3652,0v-12.36h-4.416v-2.5137H211.584v2.5137h-4.4024v12.36Zm8.3643-7.3408a9.4831,9.4831,0,0,1,.6806-3.8213,7.021,7.021,0,0,1,1.3858-2.0391,5.7862,5.7862,0,0,1,1.92-1.3349,8.0144,8.0144,0,0,1,3.208-.585,6.9787,6.9787,0,0,1,5.2656,2.0293,9.12,9.12,0,0,1,.0147,11.3184,7.8423,7.8423,0,0,1-10.5186.0088,7.6992,7.6992,0,0,1-1.956-5.5762Zm3.0947-.11a5.6093,5.6093,0,0,0,1.165,3.84,3.8222,3.8222,0,0,0,2.9668,1.2978,3.7612,3.7612,0,0,0,2.9483-1.2978,7.1,7.1,0,0,0,.0371-7.6973,4.1732,4.1732,0,0,0-5.98.0176,5.6443,5.6443,0,0,0-1.1377,3.84Zm13.6621-7.4228h3.0078v8.0537a17.3492,17.3492,0,0,0,.1094,2.4961,2.4209,2.4209,0,0,0,.915,1.4629,3.2255,3.2255,0,0,0,1.9834.5478,3.0293,3.0293,0,0,0,1.9287-.52,2.0579,2.0579,0,0,0,.7862-1.28,17.1253,17.1253,0,0,0,.1279-2.5322v-8.2275h3.0078v7.8066a19.8508,19.8508,0,0,1-.2471,3.794,4.0815,4.0815,0,0,1-.8955,1.8652,4.6411,4.6411,0,0,1-1.7509,1.2158,7.5983,7.5983,0,0,1-2.8614.4483,8.2021,8.2021,0,0,1-3.2314-.4942,4.6283,4.6283,0,0,1-1.7412-1.2705,4.1878,4.1878,0,0,1-.8457-1.6543,18.3558,18.3558,0,0,1-.293-3.7763v-7.9346Zm15.0391,14.874v-14.874h6.3261a10.8641,10.8641,0,0,1,3.4649.4023,3.453,3.453,0,0,1,1.7363,1.417,4.3348,4.3348,0,0,1,.64,2.35,4,4,0,0,1-.9776,2.77,4.7773,4.7773,0,0,1-2.9443,1.3711,7.0231,7.0231,0,0,1,1.6094,1.2431,17.3266,17.3266,0,0,1,1.71,2.4229l1.8184,2.8984H254.126l-2.1758-3.2363a22.6743,22.6743,0,0,0-1.582-2.1944,2.4548,2.4548,0,0,0-.9053-.6123,5.0529,5.0529,0,0,0-1.5127-.165h-.6084v6.208Zm3.0068-8.585h2.2217a11.1372,11.1372,0,0,0,2.7012-.1826,1.6377,1.6377,0,0,0,.8457-.6308,1.9605,1.9605,0,0,0,.3017-1.1153,1.82,1.82,0,0,0-.4023-1.2158,1.867,1.867,0,0,0-1.1328-.5762q-.3575-.0541-2.1944-.0546h-2.3408v3.7753Zm11.9072,8.585v-14.874h3.0039v14.874Zm5.1065-4.8359,2.9209-.293a3.4892,3.4892,0,0,0,1.0742,2.167,3.2389,3.2389,0,0,0,2.1758.6855,3.3481,3.3481,0,0,0,2.1845-.6123,1.8274,1.8274,0,0,0,.74-1.4355,1.3643,1.3643,0,0,0-.3154-.8965,2.5239,2.5239,0,0,0-1.0831-.6484c-.3476-.1192-1.1523-.3389-2.4043-.6494a8.0519,8.0519,0,0,1-3.3916-1.4717,3.9231,3.9231,0,0,1-.7226-5.1192,4.0649,4.0649,0,0,1,1.8564-1.5,7.4238,7.4238,0,0,1,2.9248-.5117,6.3281,6.3281,0,0,1,4.2237,1.2158,4.3426,4.3426,0,0,1,1.4814,3.2823l-2.999.1279a2.5282,2.5282,0,0,0-.832-1.6455,2.9838,2.9838,0,0,0-1.8965-.5029,3.3953,3.3953,0,0,0-2.0528.539,1.0792,1.0792,0,0,0-.4794.9141,1.1674,1.1674,0,0,0,.4482.915,7.9076,7.9076,0,0,0,2.7607.9873,14.8742,14.8742,0,0,1,3.2452,1.0694,4.2113,4.2113,0,0,1,1.6406,1.5175,4.4334,4.4334,0,0,1,.5947,2.377,4.364,4.364,0,0,1-.7129,2.3857,4.2965,4.2965,0,0,1-2.0029,1.6641,8.5828,8.5828,0,0,1-3.2451.5391,6.4643,6.4643,0,0,1-4.333-1.2979,5.6643,5.6643,0,0,1-1.8008-3.8027Zm14.581,4.8359v-14.874h4.4981l2.6963,10.1474,2.67-10.1474h4.5068v14.874H290.52V121.6922l-2.9531,11.7109h-2.8935l-2.9483-11.7109v11.7109Z" fill="#fff"/><path d="M132.228,38.4578l-.2744.0547.0733-.1738.2011.1191Zm-2.1391-.3931-1.2207.3472a4.035,4.035,0,0,0-.1963,2.13l-.4663.165.1416.4932-.169.0278-.0185-.1645c-.2925.2192-.27,2.5688-.2925,2.8383-.0684.6626.0273,1.0787-.0273,1.4537a3.3479,3.3479,0,0,0,.018.7724,3.9969,3.9969,0,0,0-.1094.7266,30.18,30.18,0,0,1-.0459,3.3232c-.1323.7315.2193,3.127-.1186,3.4649,0,0,.105.1416.1094.1552.0185.1416-.0274.375-.0181.43a18.0556,18.0556,0,0,1-.1006,2.9531c-.0459.2881-.0093,2.4678-.0639,2.7422l.7495-.1377a.2235.2235,0,0,1,.1142-.3652,3.2837,3.2837,0,0,1,.7134.2383l.3516-.6953.6718-.4844c-.1963-.3242.4161-.4062.8321-.5117l.5761-.6221.1094.083-.16.3194.2559.1054,2.2261-.6533.2607.1133.8316-.1826a3.27,3.27,0,0,1,.6538-.1866c.2422-.0371.3247-.083.4023-.2382l.26.15-.0137-.0957.7451-.2012.59-.0684.5073-.06.914-.1738.0826.0088.4155-.0859.0869-.0049.3384-.0635.6035.0039.0181.0918.2011-.1972.2012.11.3291-.0918,1.44-.1826.1782.16s.146-.1054.1553-.1054c.48-.0723.8959-.0088,1.38-.0821a5.0472,5.0472,0,0,0,.5855-.0918c.5664-.1416.2192-.37.7583-.4931l-.0274-.1738a4.3037,4.3037,0,0,0,1.3257-2.0655,4.9471,4.9471,0,0,0-.06-2.5742,10.2919,10.2919,0,0,0-.8911-2.6738c-.1919-.4844-1.3393-2.0752-1.3071-2.2124-.5029.0317-1.4448-1.6138-2.0342-1.5723.0684-.2837-.041-.2563-.3887-.2837.1373-.5483-1.0239-.393-.9-.8867a11.6877,11.6877,0,0,1-1.8423-1.0327c-.32-.2378-.63-.2427-1.0327-.5122a2.8961,2.8961,0,0,0-1.07-.4663c-.64-.2285-3.89-1.4854-4.3149-1.2066l-.3291-.2881-.21.16-1.1382-.1143c-.9189.8365-1.2021.087-2.1347.146l.1279-.4521.2744.1416c.0728-.6631.562-.1055.8408-.64a.9038.9038,0,0,0,.1783.05l.3427-.0366.5533-.2651c-.6582.0459-1.1978-.32-1.7505-.21Zm4.228-.43-.2788.0318.146-.1875.1328.1557Zm-1.4219-.2924.1646-.023.2563-.0093.3521.1143-.06.1509c-.16-.0733-.1645-.1416-.352-.1143l-.087.0137-.1645.0229-.11-.1552ZM119.53,111.0779l-.7861-.6484.2421-.0371-.1-.3018.2788-.42.3657.2646.5029-.0088.42-.1093-.0913-.0274.2466-.6494.3384-.1553.0366.2012.5166.2285c.16-.5215.2969-1.0058.8911-1.2344l-.0273.1465.3476.045-.0278-.1641-.1279.0273.0639-1.0332.3477.0274c-.1143.457.2881.2656.5117.6133.4483.6943-.0181.2373.7359.5664l-.0318-.503.7588-.5488-.3247-.7217-.0137-.4668.4937-.1279a12.5655,12.5655,0,0,1-.4571-2.002c.1324-.7587.5621-.2285.4117-.8408-.1831-.7129-.0279-.5761.393-.9687l-.247-1.1612c.5576-.1377.8-.9326,1.3437-1.39.2837-.2373.4483-.4482.7818-.6856.5439-.3837.0229-.2832.4892-.832.2422-.2832.53-.5117.7036-.74.2564-.3477.503-.4844.7041-.7412.0777-.1006.3975-.7588.4756-.9141.1367-.2744.4937-.7129.4248-.8682l.398-.4384-.43-.128.1142-.8691a5.6121,5.6121,0,0,0,1.4854-1.3623c.2148-.292.3838-.52.5986-.8135.2564-.3564.6812-.5478.544-.7949.4848-.1094.2563-.2012.43-.5762-.3931-.1191-.5665.0547-.7173.375l-.4161.0547a2.7794,2.7794,0,0,1-1.143.9414c-.53.083-.1416-.9687-.2007-1.0605-.3384-.5391-.64.9873-.7041,1.0517l-.9326.8955.11.1465c-.3427.0821-1.1425,1.0332-1.6274,1.1065-.32.0459-.0273.0273-.2285-.01l-.5576.4668c-.74.1094-1.024.2012-1.3072.2471a9.0554,9.0554,0,0,1-1.2343-.0274l.0366-3.7666c0-.2558-.0137-.083-.1235-.247l.1054.0185.1323-1.8467a13.9357,13.9357,0,0,0,.2422-1.9013c.0279-.53.1421-1.1065.1924-1.8653.105-1.5722.3794-2.542.4937-3.8857.0639-.7031.1733-1.2061.2465-1.7.1006-.7774-.1186-1.3526.0181-2.02.1651-.8418-.0137-2.8623.2881-3.6778l1.2847-.0049c.0732.4551.1235.2725.1826.6553.0366.2656.11.5762.32.5947,0,0,.8276.083.8872.083l.3013.877,3.081.0645.0044-.0918c.6353.6406,2.2994.3564,2.83.5937l.3335-.0449a12.458,12.458,0,0,1,1.6958-.0918,1.3254,1.3254,0,0,1,.8643.0459c.6626-.2471,1.0239.4023,1.6772.1182,1.3438-.5752.6582-.2735,1.9746-.3379a3.68,3.68,0,0,0,1.6641-.3291c.5757-.22.43.1552.8818-.0274a6.26,6.26,0,0,1,1.1158-.2744c.2876-.6123.5117-.2461.8911-.4658a3.429,3.429,0,0,0,1.1152-.95,7.1153,7.1153,0,0,0,1.417-.7344c.32-.1963.1416-.3291.5259-.4707.3061-.1143.6079-.1777.7265-.3975l.2652.0459c.6079-.5625.3843-.22.6582-.8554a.9613.9613,0,0,1,.7495-.6856c.5259-.1328,1.9521-1.3388,2.0937-1.3027-.0273-.3652,1.0147-1.3115,1.2066-1.76.0869-.21.7134-1.6816.7681-1.9013.0273-.1182.3334-.6036.42-.8321.1372-.3838.2334-.5664.3842-1.0381.0777-.2421.42-.8261.4571-.9726.0869-.3106-.0186-.6133.2832-.8779l-.1553-.3194.2559-.0371c-.1646-.27.2329-1.06.2651-1.2988.0732-.457.11-.9141.2012-1.3252a10.2189,10.2189,0,0,0,.0595-1.458c.0181-.3565.2329-1.0332.2056-1.2481-.0552-.32.0181-.0361-.1279-.2373.31-.3017.0776-1.7646.0317-2.0615a4.65,4.65,0,0,0-.3154-1.7969,1.7,1.7,0,0,1-.2056-.7949c-.0869-.5527-.2378-.5029-.2925-.7676a12.4515,12.4515,0,0,0-1.8789-3.7758,10.2987,10.2987,0,0,0-1.2612-1.7188c-.54-.521-.9507-1.248-1.3164-1.5356-.5488-.4346-3.2227-2.7383-3.73-2.7061a3.1776,3.1776,0,0,0-1.8833-1.0879l.064-.1738a19.8342,19.8342,0,0,1-2.4136-1.0606,12.5283,12.5283,0,0,0-2.4316-.9506l.0639-.1739a.8883.8883,0,0,1-.7539-.1919c-.3613-.2285-.3979-.1006-.6079-.1919A11.0285,11.0285,0,0,0,139.313,36.3c-.8413-.2466-2.6055-1.0054-3.31-.4571.6582.8868.05.37,1.07.9781a8.4892,8.4892,0,0,0,1.4624.4433l-.0728.1739.05-.0913,1.9155.8364-.041.1006L136.209,36.94l.0185-.11-.2055.1416-1.0606-.1143,1.042.7a4.3734,4.3734,0,0,1-1.0879-.2881c-.0732-.0185-.8408-.1055-1.0009-.1191a13.2461,13.2461,0,0,0-2.29-.2925c.1553.3569.8047.2607,1.27.4849a8.21,8.21,0,0,1-1.7734.0454,4.4883,4.4883,0,0,0-2.0112.3979c-.37.1231-.53.3565-.4019-.3428.0454-.2563.041-.5122.064-.8276a10.4474,10.4474,0,0,0-.0733-1.9883l.1646-.1738c0-.0088-.11-.146-.0777-.1646l-.1142-2.2075-.06-.416c-.1235-.7954-1.4307-2.3359-1.2934-2.8887l-.2471.0411c.1557-.4161-1.563-.59-1.65-.6172l.2055-.4024-.3793.0777.0273-.1368-.3242-.0322-.3018.3247-.1235-.0229-.169-1.271-1.49.32c-.2334.4936-.9922.3384-1.1289,1.0239-.7866.1231-.4253.0274-.5532.2832-.128.27-.1646.0274-.4024.2056-.1372.3794-.6489.6079-1.0239,1.0288-.0732.082-.8594,1.33-.873,1.3755-.2242.7451-1.23,2.1714-1.4307,3.0034-.1279.498-.42.9688-.5029,1.3667-.128.6675-.2925,1.1289-.4385,1.6772a8.5034,8.5034,0,0,0-.2881,1.2984c-.0273.3247-.1235,1.3208-.3291,1.435a.4411.4411,0,0,1-.1509.7041l.05.3384c.1143.7588-1.1655,5.9058-.9277,6.2989l-.2608.05.2149.2149c-.0459.0454-1.5723,5.5576-1.7232,6.1475-.1645.6308-1.98,5.6865-1.833,5.9472l-.247.0361c.2011.3389-.1006.6309-.2373,1.1612-.0367.1465-.1968,1.0332-.4209,1.1562l.1191.3243c-.6445.59-1.6411,6.5917-1.6592,7.4785a18.2075,18.2075,0,0,1-.3066,2.08c-.0274.1875-.1323,1.6543-.1187,1.7754a18.3506,18.3506,0,0,1-.1279,2.0391c-.0322.2832-.0459.457-.0869.9785-.0137.2188.105.9141-.2329,1.0967.2011.3018-.0552,1.2246-.0733,1.49-.0459.5479-.1552.8594-.1552,1.2705a12.0293,12.0293,0,0,1-.2652,1.3985c-.0185.1552-.0962,1.2978-.3657,1.4443.32.4756-.48,2.3311-.1919,2.7608l-.2148.22a27.4568,27.4568,0,0,1-.3658,3.41c-.0136.1182-.0776,1.27-.0551,1.417a3.4671,3.4671,0,0,1-.0957,1.5811l.0639.7588c.0821.64-.0732,1.1338.0137,2.0752.0317.4023.0869,1.39.2056,2.167l-.0044.0908.2148,1.5908.0913,1.5088.169.5029c.0322.0908.0322.4111.0732.6768l.1328.667c.1646.6211.8545,2.249.9321,2.7695a14.8334,14.8334,0,0,0,1.4629,2.3594c.2608.3193.4937.7676.7769,1.0508.3384.3291.2925.1.4482.5214a.95.95,0,0,0,.4751.5479l-.1006.0644.7178,1.2071c.5713-.0371.7129.457,1.3072.2285a8.6979,8.6979,0,0,0,1.2753-.7959l.2012.3564.5029-.1093-.0229-.1739c1.0195-.1279.7954.6309,1.5132.9688l-.023-.1641.3335-.0547.0689.2012.32-.3935.6035.0458-.064-.5029.169-.0273v.0918l.2515-.0274.2285.2188.1875-.1641.6948.3653.146-.1192Zm13.2373-74.43-.2559-.0459.0093-.082,1.1153.0361.3291-.018.3471.11c-.1094.2012-.4292.2285-.667-.0136l-.334.059h-.0869l-.3379.0186-.1191-.064Zm-4.5112,6.1934-.0869-.0869c.082-.3472-.1919-.05.1-.3472l.128.3291-.1416.105Zm2.9619-5.8369c-.2422.0366-.1553-.0044-.2744-.1328l.5122.0229.0136.0689-.2514.041Zm3.4785-.1875-.1465.1142-.0913-.0913.11-.1919.1279.169Zm-6.44,6.0244.082.0869-.041.3291-.064.0137.023-.43Zm6.7055-5.9834-.1465.1191-.1186-.16.2651.041ZM128.1553,41.73l.1416-.1963.0459.1875-.1875.0088Zm.05.3291.1416-.1919.041.1831Z" fill="#fff" fill-rule="evenodd"/><path d="M170.0845,65.81l-.2061.1739-.2329-.22c-.3291.375-.914-.2373-1.417.0274a5.517,5.517,0,0,0-2.6328-.2744,4.8893,4.8893,0,0,0-3.4189.7314c-.91.6084-2.5186,1.0332-3.1314,1.7734l-.4385-.0459a8.0061,8.0061,0,0,1-2.1118,1.545l.0684.0742-.8687.84.0733.0743-.26-.0274a19.58,19.58,0,0,1-1.4219,2.294,3.5113,3.5113,0,0,0-.4936,1.1591c-.082.3926-.32.8868-.4844,1.5078a13.7278,13.7278,0,0,1-.8774,2.295c-.1831.4023-1.2071,2.084-1.0332,2.5781-.37.21-.544,1.8193-.6538,2.8525.4253.292.2881.045.2514.5752-.0092.0733-.0547.9414-.0683.9414l-.0913.6309-.2061.585.1509.2841c-.4888.585-.4614,1.8467-.5713,3.044l-.2148.2373c.0961.1006.1049-.1367.0683.1836l-.064.2646.0186,1.8555-.0093.0918c-.0229.22-.018,1.125-.0317,1.1523l.26.0274c-.2285.43.7041,1.6269.7774,2.2666.0088.0547.4477.8232.5024.9414.2061.43.2285.9971.5943.8877-.0088.6211.6582.6943.64,1.4892l.082-.0732.7222.9424.311.3017c.1831.43-.32.1827.2788.53.2422.1455.27.4111.7041.6856a8.1474,8.1474,0,0,1,.8457.6035c.2925.2285.3931.1552.6944.374l1.1245.2285c.1006.1738,1.0151.6221,1.3623.9785.2192.2285.3472.4483.53.6221.4111.3926.5576-.083.54.52.6763.1279,1.1426,1.5088,1.6543,1.7188.8506.3476,1.001.8593,2.0528.9687a.9213.9213,0,0,1,.5073.2285c.7768.083.7861.3389,1.3208.4756.498.1191,1.001.1553,1.1108.22a8.0585,8.0585,0,0,0,1.2617.4844,9.6711,9.6711,0,0,1,1.1973.74l-.2788.6768.0962-.082.5893.1738.087.0088c.1967.0185.2011-.0459.3657-.1367a1.0533,1.0533,0,0,0,1.38.3291l.0551.3466.5757-.375a2.1209,2.1209,0,0,0,1.4629-.0722c.457-.1377,1.376-.293,1.627-.5947l.2236.21.17-.2734,1.0967-.5762-.1641-.2656a2.8254,2.8254,0,0,0,1.6494-2.0293c.1875-.5938-.05-.375.4532-1.2246a4.7988,4.7988,0,0,0,.2187-1.1153l-.1045-.01.0684-1.3252a.3592.3592,0,0,0,.2012-.3291l.0361-.3565.0459-.3476a3.1391,3.1391,0,0,1,1.3486-1.792l1.0235-.52a1.6776,1.6776,0,0,1-.0684-.1924c.0547-.5576.3018-.4023.8232-.7676,0,0,.9961-.4209,1.1329-.4394l.0371-.2647.0634-.5117-.4111-.2383c.1553-.292-.3018-.4385-.53-.6943-.4111-.4668,0-.4756-.37-.8135a8.8423,8.8423,0,0,0-5.2607-.5762l-.6133.0459-.1553-.2832c-.2558.1367-.9053.2832-1.27.42a10.4434,10.4434,0,0,0-1.207.3838,15.7341,15.7341,0,0,1-2.7241.7862l-.2193.2383a10.7129,10.7129,0,0,0-2.3769.5029,11.1487,11.1487,0,0,1-2.3037.2461l-.6123-.0635-1.92-.293h-.8091l-1.851-.4843.0639-.1465c-.21-.0362-1.938-1.4991-2.3222-1.709-.3565-.1924-2.1939-1.7647-2.2852-1.8379l-.9692-1.4717.0547-.2471L154.85,90.29l.0869.0547,1.3164.0547.3472.0459c.2378.0088.2832-.0273.4526.0361l3.8164-.2c.087-.0556,3.95-.7959,4.4156-.832.6631-.0547,1.4082-.3662,2.08-.4756.6171-.1094,1.6044-.4941,2.0522-.5664.6538-.1191,1.1611-.3476,1.9014-.43.3886-.0556,1.4951-.5215,2.1484-.6582a6.7938,6.7938,0,0,0,2.084-.8965,16.8906,16.8906,0,0,1,2.0576-1.1152l-.0371-.1094.2285-.0547c-.0635-.2011.8418-.7587,1.1289-.997.2422-.1914.6406-.8955,1.1387-.9229l.4111-.8144h.2149l.9277-1.4805-.1641-.293.3653-.0273c.082-.2373.9785-1.2617,1.1845-1.5908a5.5328,5.5328,0,0,0,.8819-1.59c.0273-.375.1279-.3388.2422-1.0058.0957-.5391.1963-.32.4619-.8692.1914-.41.873-.95.832-1.6543l.0449-.9844-2.0381-1.8007.1094-.1651c-.3379-.0634-.8222-.6123-1.0332-.8408a4.1469,4.1469,0,0,0-.9873-.6309l.0694-.1562-.3614-.1-.3154-.3887-.0781.0586.0136-.168-1.1015-.8925-.0733.083,2.4551,2.624.0088.3555-.3516.375-.01.1054-.9229-.6074.0635-.0918-.4385-.0459c-.1191-.4658-.8779-.8174-1.27-1.2246-.2422-.251-.5254-.3066-.7861-.5674-.2969-.3105-.4844-.1914-.7315-.3652-.165-.3838-.4482-1.0781-1.0879-.7178l-.21-.1787-.3018.11.0362-.3477a4.6676,4.6676,0,0,1-1.3213-.7129c-.2237-.1279-.2149-.2373-.4981-.334-.4336-.15-.4843-.1045-.7949-.206-.43.2285-1.1611-.3242-1.9019-.4659-.1279.2647-1.2065.2979-1.5263.1924Zm1.0605,7.6407.1734.1816c.1875-.0635-.0367-.1.2558-.0449l1.5586.3291a25.0382,25.0382,0,0,1-3.1079,1.9385c-.1416.0449-3.2226,1.416-3.2773,1.48l-1.7.4209a6.2741,6.2741,0,0,1-1.7007.6026c-.5669.22-1.0742.43-1.7827.6953-.4937.1738-3.3731,1.8008-3.6016,1.792l-.0278.2558-.8364.2373a9.5094,9.5094,0,0,1,1.0834-2.706,7.82,7.82,0,0,1,.8228-1.252c.2056-.22.9233-.8047.85-1.0332l.4482-.1553c-.1464-.5117,2.4317-1.746,2.7105-2.0839l.3428.1093c.2651-.6953,2.7881-1.2,3.6567-1.1084.3613.0411.2925-.0595.626-.0224l.0869.0136,3.4194.35Zm-14.17,11.72.1187-.1651a25.1754,25.1754,0,0,0,4.8632-1.3076c.6631-.2285,2.1578-.7676,2.45-.831a8.546,8.546,0,0,0,2.313-1.0157l.2285.22a1.5746,1.5746,0,0,1,1.2935-.4112,2.5562,2.5562,0,0,1-.937.5205l-.2652-.0273a10.6327,10.6327,0,0,1-2.4223.9424,17.6316,17.6316,0,0,0-2.34.9961c-1.3624.64-3.4556,1.4531-4.7813,1.2246Zm0,0-.11.164-.1738-.1738.1372-.082.1465.0918Zm-.8686,1.6631-.43.4941-.5166-.0459.1508-.6035a.8763.8763,0,0,1,.2378-.5938l1.7139.4385.7271.0821-1.6456.4668-.2377-.2383Zm-.0962,1.0146.21.1738.37-.1826-.3017.3477c-.2876-.1465-.3106.082-.6944.0273l-.53-.0459c.1826-.21.2236-.1465.5117-.1006l.4341-.22Zm.4433,1.4356c.357.0371.11-.2832.3477.1279-.42-.0176-.4571.11-.6035-.1553l.2558.0274Zm-.8911.082c.3613.0371.105-.2832.3428.1191-.521-.0088-.2012.1651-.5484.128l-.0825-.0186a.3944.3944,0,0,0-.2739.0645l-.064-.1094.2007-.22.3384.0361Z" fill="#fff" fill-rule="evenodd"/><path d="M270.7959,73.1922l.05.2763c-.4756.22-1.1426,1.4356-1.4941,1.9385-.0694.1006-.3155.2744-.4707.4385-.3662.3848,0,.1094-.211.457-.1689.2744-.4931.5938-.6855.9512-.6309,1.1338-1.1611,4.5068-1.6045,4.7441l.1514.2744a1.27,1.27,0,0,0-.2657.585l-.0908.7959-.0918.43.0361.1006L265.8633,85.5l.1514.2012-.0957-.0372-.1006,1.0606-.1563,1.4814c-.0273.4112.1279.2647-.1728.5938.1826.3838.0361.2744.0361.457l-.0645.3477c-.0273.4023-.3154,2.706-.5937,2.8525.0459.1182.0732.1094.05.2735l-.0137.0918a8.3509,8.3509,0,0,1-.539,1.2529c.1923.4013-.4112,1.3984-.5938,1.8008a13.0565,13.0565,0,0,0-.3935,1.8828l-.0547.6123-.1231.7041-.2607,1.8467-.2285.1279.0957.2744-.416,1.4717-.1094-.0186.1367.2569-.1738.1728-.1416.8692.0869.0087c-.1231.1465-.1963.128-.22.3291l-.0411.2657.1329.0176-.0733.7041.11.0185-.2246.2285a10.3138,10.3138,0,0,1,.5439,2.3955c-.0459.3194-.0459.3653-.2373.4112a1.52,1.52,0,0,1,.16.7314c-.0508.3379.0224.0361-.1241.2461.2832.2842.0459.2471.544.6768.37.3291.4707.4111.8271.2382.6133.0909.7139.128,1.001-.1836l.5859.3291.5577-.1826-.0411-.2744c.4844-.539.0909-.4658.9414-.53.2286-.0087.5206-.4111.7354-.64l.3428.1279a11.5413,11.5413,0,0,0,1.1982-1.5176l.041-.2646c.5528-.11.3975-1.8018,1.586-1.7285l-.0274-.1094.2285-.0361c-.1054-.4121,1.97-1.6914,1.8379-2.2315l.2647.0371c-.0821-.31.4023-1.0058.667-1.289.1416-.1553.7226-1.3535.9834-1.49-.0049-.0087-.06-.1826-.0137-.1923l-.01-1.5079.0186-.082c.082-.5947.1826-1.6455-.1553-1.9844a1.3241,1.3241,0,0,0,.1094-.164,6.293,6.293,0,0,0-.5391-1.93c-.2929-.502-.5576.0283-.5576-1.06,0-.2109.0361-.7138.0635-.9053.0459-.3115.1377-.2832.2607-.5849l-.1142-.01.1279-1.3164c.1416-1.124.3018-3.5381.3662-3.666a4.9807,4.9807,0,0,1,1.042-1.2246c.05-.0547.749-.9873.9687-1.3076a7.6039,7.6039,0,0,0,.9053-1.3614c.0684-.3574.2559-.1923.4522-.5585a2.6778,2.6778,0,0,1,.5263-.7764,2.4714,2.4714,0,0,1,1.4854-.8047c.2334-.0645.1689.0918.7178-.0918.4707-.1641.5664-.0361.873-.1826.36.32.42.22.8.4844a10.065,10.065,0,0,1,.8594.6855,3.2434,3.2434,0,0,1,1.0605,1.5361,2.4081,2.4081,0,0,1,.1914,1.7276l-.0634.43c-.0274.1923-.3291.3388-.32.8047.0048.3017-.0362.64-.0323.6855.0323.2744.2608.1826.2608.6953,0,.2647-.1553.6582-.1553.8037l-.0225.3574-.1923,1.042c-.0508.3291-.0323.0274.041.2559l-.1924.1641-.0361.9785-.0635.3476c-.0283.3565.1142.128-.16.503l.1045.4658c-.4658.22-.85,2.23-.8769,2.834-.11,1.9287.1005,1.7-.3252,3.1718a2.9407,2.9407,0,0,0-.1143,1.6914c.1377.3936.3018,1.4815.3477,1.5821.1093.2558.206,1.1787.2968,1.4258a1.5264,1.5264,0,0,1,.1328.74c.0459.4394.1006.3389.2647.8047a12.3119,12.3119,0,0,0-.1826,1.5088c-.0088.1093.3388,1.3525.375,1.4629a3.8841,3.8841,0,0,0,2.1025,1.4619,1.0661,1.0661,0,0,1,1.2344.0918c.4482-.4942.6221-.2832,1.4258-.4385.3935-.083.2656-.0645.4394-.3389.2285-.3652.3838-.1279.5664-.1738.6953-.1641.4571-.7861.8868-.9043a5.293,5.293,0,0,1,.622-.2559c.626-.1.2188-.1923.6758-.247-.1455-.5674.5078-.4209.6035-1.07l.0371-.2647c.4385.0274.2422-.0547.5166-.4385.3565-.5029.3106-.1006.5889-.3935l.22.2012.8408-.128-.0732-.1826c.5127.0361.6494-.5576.6768-.96.43-.21.22-.2744.2744-.6767.082-.5576-.1924-1.1152-.1465-1.4444.0547-.3378-.0176-.0361.1279-.247h-.0908l-.1006-1.124-.0918.0087.2285-.3291c-.206-.1005-.0361-.5478-.0683-.9414-.0137-.2285-.0137-.7129-.0371-1.1523a16.1347,16.1347,0,0,0-.0635-2.084c-.1787-.9228-.4668-2.8066-.5254-3.6475-.11-1.499-.6221-2.44-.7588-3.8486-.0371-.375-.3476-1.4355-.4434-1.9844-.0693-.4013-.16-.6582-.1972-.9589-.0449-.3575-.457-.5127-.4473-.9786l-.1836.0635c.0371-.5937-.3467-.7676-.3379-1.0508a1.3616,1.3616,0,0,0-.2744-.9238l-.2695-1.7187.4346-.5577-.1192.01V79.21c-.2744-.0634-.4111-.4384-.6308-.7773-.2832-.4023-.74-.53-.5577-.8223-.3476-.082-1.2431-1.0791-1.5175-1.3525a11.1833,11.1833,0,0,0-1.3164-.8867c-.1192-.0918-.795-.5215-.8956-.5762a4.9268,4.9268,0,0,0-.4843-.165,3.1955,3.1955,0,0,0-.375-.2832c-.4434-.2373-1.39-.7774-1.6914-.6768l.0185-.1738-.3476-.0547c-.4209-.0615-.585-.2715-1.28-.3731-.5713-.0771-1.1426.211-1.5078-.0361a1.1778,1.1778,0,0,1-.8233.2842c-.43.0312-.416.18-.8134.2168a7.3627,7.3627,0,0,0-1.7325.6123,11.4993,11.4993,0,0,0-1.8056.9141,13.3523,13.3523,0,0,1-1.6182,1.1709,18.7607,18.7607,0,0,1-.2558-2.25c.0185-.5762-.1006-.7793-.0909-1.1172,0-.2793.1182-.7452-.2744-.91l-.0234.1738a.505.505,0,0,1-.2461-.749C271.7969,71.3045,271.5039,73.11,270.7959,73.1922Z" fill="#fff" fill-rule="evenodd"/><path d="M192.4541,70.2166a1.3034,1.3034,0,0,0-.5752.914l.0088.795c0,.0781-.0547.334-.0508.3476l-.2422.9463c-.1455.5147.0186.3955-.3974.7158-.48.3838-.1875.5293-.626.7305-.1738,1.1426-1.0693,1.7285-1.2666,3.0176-.041.2646-.1318,1.2793-.4883,1.3623l.1455.2832a1.0941,1.0941,0,0,0-.26,1.1152l-.2608-.0371a15.4557,15.4557,0,0,1-.7773,3.0176c-.3477.8682-.4571.64-.585,1.4717-.0137.082-.3476,1.4345-.0273,1.6269l-.2285.32c.1738.0821.164.1006.1367.292-.0547.3291.0185.0274-.128.2383.2334.2373.11,1.4717.1377,1.7363.0225.3291.3789,1.7012.0362,1.7735a1.6533,1.6533,0,0,1,.0547.1836,3.1181,3.1181,0,0,1-.43,1.0966L186.44,93.38c-.0459.2558-.1192.1093-.2012.4756a3.111,3.111,0,0,1-.165.539l-.4659,2.0293-.334-.1006a2.1814,2.1814,0,0,0-.4345.9971l-.0772.3564-.2422,1.8282-.0136.0918c-.2149,1.3711-.1651,2.6142-.4258,4.4795-.2832,2.0293-1.0967,3.583-.6758,4.9638l.3428-.0273.27-.4844.3477.0449-.0371.2657c.5761.1367.2656.0917.5986.3017.2285.1465.27-.0732.6035-.1094l.0645.2647a2.7,2.7,0,0,1,.9824.4385c.5625.3564.709.1738,1.289,0l-.0087.7587,1.0371-.8037-.0137-.1.43.4658c.4668-.5215.5849-.9141,1.3349-1.1338.0733.3935.7774.375.9327.32.3193-.165.1416-.7129.9873-.6494l-.083-.0547.8095-1.2158.0733.0547.2509-.9414a2.5911,2.5911,0,0,0,.43-1.0059l.0459-.3477a.76.76,0,0,1,.251-.4931,5.0822,5.0822,0,0,1,.2979-1.17c.2236-.3565.7861-.8321.6308-1.3624l.0635.0733.5215-.43-.0459-.2744a21.92,21.92,0,0,0,1.124-2.7061c.2842-.5664.832-3.0166,1.07-3.3828l.0908-.6943.0918.0185c-.0918-.11-.1093.128-.0547-.1923l.004-.0918.2744-.585c-.1045-.2285-.2051-.6211.1054-.6855,0,0-.0547-.1827-.0273-.1915l.0547-1.1523a6.9465,6.9465,0,0,1,.2373-.9326,16.076,16.076,0,0,1,.6133-2.3223,8.9764,8.9764,0,0,0,.4931-2.2578c.3662-1.2793.6494-4.1865.3477-4.8359a3.5641,3.5641,0,0,0,.7676-.1826c.165-.0274.32.1191.5849.2011.6309.1914,1.042.53,1.7373.6856l.7266.247.0234.1641,1.6543.8047c.0362.3379.64.7861.9414.8594l-.1006.0634,1.084,1.6094-.0967.0733.1827.0273.5029,1.3164a5.0058,5.0058,0,0,1-.4746,1.3809,5.9006,5.9006,0,0,0-.2744,1.1884c-.1973,1.0967-.4209,2.5772-.16,2.834l-.2246.2188c.3662.3662-.0547,2.4043.1875,2.8984l-.2236.2188c.5117.5215-.128,2.8252.3291,3.0908-.0733.0908-.1006.0723-.128.2461l-.0185.083a4.0307,4.0307,0,0,0,.1514,1.3613l-.11.0371.0693.22c-.2382.64.5479,3.1171.74,3.7109a14.8888,14.8888,0,0,0,.8818,1.8281c.2012.2656.3067.6953.5352.832a3.1191,3.1191,0,0,1,.9052.5577l1.0557-.6123h.6719l.8594.9785,1.6914.53.0361-.1006.2285.2285c.2383-.2656.9-.6494,1.2393-.5117l1.0371-.3848c-.0635-.2647.2383-.3193.416-.7217.27-.6308.4893.0459.581-.5488.0586-.4024.128-.3477.5118-.4658l-.0918-.01.1963-1.3066.0918.0459.5166.1367.2285-.32c.3935.1552.4795-.1094.5488-.3838.1182-.4385.37-.3653.4473-.8867.0371-.2012-.0088-.1094-.0274-.3653l.0918.0449.7315-1.3437c-.0459-.749.4384-.9141.5849-1.2246.1914-.3838.0225-.375.3477-.6582.3515-.3106-.01-.5947.5986-.5576-.1787-.74.9-.7315.8-1.125l.2608.0371c-.087-.3477.123-.2012.1689-.503.1006-.6943-.8682-.1738-.6123-1.2617-.585-.31-.3564-.8222-.4482-1.1338-.6582-.5029-.1006-1.1611-.4248-1.9287a4.1268,4.1268,0,0,1-.1553-1.8095l.26-1.6641-.0087-.53.0185-.0918.0635-.3467.0459-.4394.1465-.95a9.2223,9.2223,0,0,0,.0869-2.7158c-.1143-.3379-.0967-.5391-.2109-.8321-.15-.3837-.27-.457-.3741-.8037-.0693-.2285-.581-1.2529-.48-1.417l-.2647-.0459c.2149-.3564-.8232-1.5908-1.0976-1.9746-.2374-.32-.461-.6582-.7032-.96-.206-.2744-.6357-.3477-.832-.7676l-.0732.0908-1.2207-.914.1328-.3379c-.0049,0-.9414-.503-1.0332-.5577a3.7293,3.7293,0,0,0-1.1885-.5947,22.2254,22.2254,0,0,1-2.2305-1.06,45.6864,45.6864,0,0,1-4.0869-2.06l-.2646.16.0185-.0909-1.0879-.4209-.668-.3515-.3017.0957a5.5026,5.5026,0,0,0-2.1846-.7676l-2.2949-.7949-1.1289-.1924c-.48.22-.5342.0547-1.1475.2832-.1416.0459-.6757.4209-.6035.6943l-.2646-.041-.0274.1875-1.125.3477c-.2558-.85-.0449-.5352-.5849-1.2715-.1641-.2188-.2461-.36-.3838-.57-.2744-.4072-.3106-.1289-.4756-.4434l-.2647.127-.4111-.3106c-.5488.6035-.4844.2559-.7412,1.0108-.1006.3056-.2012.9463-.5576,1.22a3.6833,3.6833,0,0,0-.8633,1.1348c-.22.3466-.3252.3515-.3564.5449-.042.2383.0683.4121-.375.457l.0322-.7969c.0176-.2929,0-.0683.1006-.2334l-.0869-.21-.0694-.3653c.3565-.3935.0918-.0878.1651-.33l.082-.7032.5849-1.8652-.0908.0313-.2656-.4239-.5479.8223-.0732-.0547-.0371-1.33Z" fill="#fff" fill-rule="evenodd"/><path d="M258.8428,71.3045c0,.42-.252.2383-.6221.5166a3.59,3.59,0,0,1-.9092.5888c-.9189.3711-.955.5625-2.0068.1377l-.4023-.0088-.21.4522L254.2715,73l-.2461.0137-.0371-.4248c-.4111.083-.6807-.1553-1.01-.2969-.1465-.0635-1.1933-.1514-1.376-.3614-.5537.334-2.0117-.53-2.67-.6445-.43-.0732-1.3164-.1455-1.5674-.165a12.8269,12.8269,0,0,1-1.7412.11c-.2519.4756-.53.1465-1.125.3662-.3291.1182-1.0058.4522-1.0058.8038-.3565-.1143-.5664.1328-.7813.4941l-1.6592,1.2314-.22-.0918c-.4023.7686-.6123.1465-.8818.668l-.0274-.082-1.5547.5293-.0312-.0908c-.2148.4209-2.0576.6582-2.3955,1.3994l-.2012-.083-.0644.3193c-.1592.0283-.3565.0371-.4473.2383l-.0918.22c-.3428-.01-1.7051,1.4356-1.8652,1.7822l-.2149.0274-1.86,2.4775a19.0831,19.0831,0,0,1-1.1836,2.1026,8.3854,8.3854,0,0,1-.7266.8964,8.9609,8.9609,0,0,0-.5029.95l.1367.2559-.2559-.0176-.1914.43-.7226,1.334-.1094.2109-.1787.4385-.1689.4482-.3516.6309-.0684-.0273a1.0237,1.0237,0,0,1-.0732.5664,14.82,14.82,0,0,0-.6221,1.81,3.6683,3.6683,0,0,0,.1192,1.8457l-.1651.1924.128.165.1279,1.8828h-.0821c.2969.1641.3565.2374.1739.4209l.22.0821c-.2334.2373.1455.3926.0732.9228-.0556.43.2012.4756.2461.8965a3.0227,3.0227,0,0,1,.0274.9414c-.1045.3291.3154.4658-.0361.8135l.22.1006c-.22.21.1728.914.5664,1.0879-.1826.2011.0459.165.0088.5029-.0313.2471-.1319.3564-.0684.5576.1416.43.544.9688.53,1.1065l.5537.1455.1416.247.5713.0645c.2881.4385.6308.1738.6123.6035l.2471.0176c.1005.1377.0683.2012.2324.2656l.3662.1553a3.1939,3.1939,0,0,0,.5439.1367c0-.5664.53.0557.6446.1006.4707.2012.3974.3389.5986.43l.0732.0273c.2833.1192.2374-.164.5391.1377l.0918-.22.2188.0918.0644-.1377c.4346-.0547.8867-.0449,1.4531-.1553a3.1514,3.1514,0,0,1,1.5821-.1279l-.0274-.0732.7129-.3194c.4346-.2656.544-.4209.9961-.6855.3252-.1924.3389-.0459.6133-.1289.31-.0821.31-.2832.4433-.3926.27-.1651.754.0088.7588-.375.4248.1377.4336-.082.7168-.32a2.6037,2.6037,0,0,1,.81-.2373l-.0644.1377.1513.0722c.4434-.4843,1.0059.2012,1.4307-.3467l-.1465-.0644c.2695-.6494.8965-.749,1.2842-1.5908l.6767-.1739.503-.082.247.3106c.0176.247-.0459.7138-.0547,1.1162a10.5108,10.5108,0,0,0,.2461,1.1152,2.6873,2.6873,0,0,1-.0361,1.9649l-.21.43a4.2061,4.2061,0,0,0,.8038.8135c.288.1651.5576.1924.6494.6582l.5849.2471c.5625.8506.4385.4394,1.3711.8232.2842.1182.0137.0362.1973.0547l.498.8867.0635-.0644,1.0108.6406-.06.1455.22.0918a6.0152,6.0152,0,0,1,.85,1.0518c.6768-.128.6992.2558,1.18-.2744.1553-.1553-.01-.2745.2881-.4209.3018-.1553.52-.0821.5254-.3565l.2471.0088c.05-.2559.4746-.74.85-.585l.2929.1192c.4112-.4385,1.0059-.64,1.2618-1.2617.2558-.6309.1279-.1641.5117-.6211.2881-.3477.457-.6309.292-.7774.2109-.2744.1923-.0732.2978-.3017l.0313-.0821c.2841-.6679.832-1.39.7871-1.8838l.74-1.1884.082.0459a.9393.9393,0,0,1-.0087-.1739,2.1211,2.1211,0,0,1,.2236-.3291c.1963-.4755-.22-.6211.2793-.9873l-.0459-1.417c.2012-.4472.3838-.5478.3379-.8681-.0733-.4385.1738-.3018.1465-.8955-1.0606-.3477-.4981-.76-.6221-1.8106l-.3652-.1552.0546-.0645-.8222-.7764c-.3018.0176-1.5274-1.1523-1.6826-1.372-.1553-.21-.5577-.4112-.53-.8223a8.2685,8.2685,0,0,1,.0508-.9053c.2148-1.49.0957-2.3857.3427-3.9033a17.65,17.65,0,0,1,.292-1.8193,8.5573,8.5573,0,0,0,.2246-1.0606,3.1554,3.1554,0,0,1,.2969-.9228c.0362-.1465.1006-.6953.1553-.9512.0732-.3838.1738-.5664.2373-.9512.083-.5478.083-.53.1553-1.0322a3.9,3.9,0,0,1,.1924-.9873l.0917-.22c.1827-.4571.8223-1.1153,1.1612-1.8653l-.8145.54.7959-1.39-.0644-.2744c.3935-.5762.5127-.7129.9375-1.2617.3974-.5029.6172-.8047.53-1.335l-.4433.2744.2285-.6757.1367-.2012.7959-1.8311h-.2793l-.0224.0909-.3252-.2647-.4707-.334.0644-.082-.6543-.1006.0235.1553-.6309-.0821.0049-.247-.11.0273-.0224-.3291-.43.0186Zm-18.59,12.7226a5.7382,5.7382,0,0,1,1.1338-1.7363,9.8677,9.8677,0,0,1,1.7276-1.207c.1552-.1192,1.7138-.7676,2.1347-.9961.4248-.22,1.6543-1.18,1.92-1.07l.0722.0283c.1651.0722.1377.1279.2334.2734-.1777.1465-.05-.0908-.164.1836l-.1553.374.4062.5489,1.6826.1279-.01.1006-.52.668-.0918-.0557-.05.32c-.334.0645-.3526.3291-.5127.64l-.1143.3018a.4023.4023,0,0,0,.0547.457l-.2422.1377.083.0459-.1328.3741.4024,1.746c.0908.375-.01,1.417.2373,1.792l-.2471.1465-.0547,1.1153-.1738.7041.083.0273-.252.1367-.041.8594a4.0259,4.0259,0,0,1-.6855.9785c-.4844.667-.22.2373-.503.9229a6.1292,6.1292,0,0,0-.1689,1.9658c.0186.3838.0771.6767.0732,1.1523a6.4049,6.4049,0,0,1-.1054.8408.6654.6654,0,0,1-.5166-.8232l-.7266-.3105-.0361.082c-.0371-.1455-.0918-.2188-.3018-.3018l-.3662-.1552a1.7555,1.7555,0,0,0-1.1924-.8409l-.91-.3017c-.1914-.0547.1377-.2559-.251-.0186-.2422-.3564-.0274-.1006-.334-.2187-.8594-.3662-1.5635-.2285-2.5684-.6494-.0507.0088-.5263.0361-.53.0361-.1563-.0635-.083-.0635-.2608-.1914l-.06.1465c-.4434-.1924-.3018-.4395-.4024-.9239a2.2245,2.2245,0,0,1-.0185-1.0419,3.9571,3.9571,0,0,1,.0234-1.2618c.082-.3105.3193-.4658.2285-.8867l.1963-.1094-.0547-.247.2285-.0821-.082-.0273.0908-.32c.1055-.2647.1143-.1279.1553-.2832l.1553-.6309.2285-.22-.1641-.0908.2471-.1465.1279-.3838Z" fill="#fff" fill-rule="evenodd"/><path d="M299.1221,119.7537l1.7734,2.4873-.0459,1.1055.7539,1.0146-.0683,1.9844-.64-.2109a9.9629,9.9629,0,0,0,3.9492,8.9042l-.7588,1.0147c1.4629.9873,2.2989.4941,1.7735,1.81l3.8945-.0371a4.64,4.64,0,0,0,3.6016-1.581l2.7793-.5391c1.7549-2.6328,6.1933-1.4443,7.0849-3.9043.9961.4121,1.4444-.3926,2.1485-1.4443l.6855.3847c1.7276-2.5781,4.2969-4.0595,5.7227-7.7431.9238-2.3955,2.67-5.9063,3.3642-8.6856a41.16,41.16,0,0,0,1.55-9.791c0-2.4863.6621-7.7334,1.4121-8.8672,0-2.2949.0088-3.6572,1.417-4.5986-1.3711-3.3369,2.4414-12.5518,1.7325-14.2334l-1.0235.7676c0-4.0586.5069-1.7461-1.4131-4.6094-1.663.6875-.3466-.375-1.7734-1.418l-.0186,1.1387-1.1884-.2969-1.2744,1.9952c-1.34-.8956-1.6778-2.251-2.834-1.7706V71.5642c-.6817.2793-3.78-1.5488-5.0879-1.9961a28.8379,28.8379,0,0,0-5.8965-1.1894h-1.0693c-2.1026,0-4.4434,1.418-5.2618,1.1064l-.8271.7862-2.624.74-1.5811,1.6465-.7129-.4024-7.0947,7.8321.1191.5478-1.1513,2.9805c-1.6553,1.1152-3.209,7.0215-3.1953,10.2754.0136,2.6152,1.1836,8.7031,3.5517,9.5625-.4121.9971,1.124,2.542,1.9649,2.3037l1.5771,1.2432c.0049,0,.6631-.3565.709-.3565,1.2519,0,.7676.9141,2.0752.4024l.7588,1.0244c.4336-.2471.3789-.3662,1.0644-.3662h.3526a10.1069,10.1069,0,0,1,5.0644,2.23l1.2754.3838,1.75-.1826,1.1611-1.1611,2.7979-.5576c0,3.3642.1006,3.9218-.8682,5.86-1.49,2.9346-1.9472,2.9805-3.3828,5.1191-.4756-.1914-2.706.5577-3.876.74a11.35,11.35,0,0,1-4.0185-.2012c-1.76-.2646-6.4307-1.6455-7.3447-3.0166-1.1338.4756-2.7979-1.0146-3.5567-2.1572l-.6943.3838c-.22-.3194-.5762-1.0606-1.0654-1.0606-.8086,0-.4063.1192-1.4122.3565.5206,1.957,4.6075,3.584,3.8946,5.3115Zm27.5625-44.4844c1.5908.211,1.5908.9512,2.56.5488,1.6407,2.45.9053,1.4444,1.7735,3.5381l-1.7959,2.4678.0224,1.0791c-.8779,1.3076-3.4833,8.5107-3.5419,11.3447l-2.4463,7.3321.3388.1552-1.3349.5577c-.8047,1.6914-4.0137,1.2988-5.0645,1.5175l-.7773-.6308-1.6865.3564-1.33-.6855c-.7862-.7676-1.2344-1.5723-2.2305-1.17-.0322-.3837-2.1074-4.5712-2.126-4.5986a24.1712,24.1712,0,0,1,.1006-5.54c.1416-1.1885,1.0469-2.7237,1.4307-4.2227.69-2.67,4.7724-7.7256,4.8457-8.667l.6943.3838.0186-1.0879c1.0879.4483,1.49-.9326,3.1816-1.7822,1.7-.8594,2.9346-.5586,3.5469-1.4082A17.0475,17.0475,0,0,0,326.6846,75.2693Z" fill="#fff" fill-rule="evenodd"/><path d="M128.418,155.9558a9.866,9.866,0,0,1,0-13.3154h.6538a14.8987,14.8987,0,0,0,0,13.3154Z" fill="#fff"/><path d="M130.7813,151.4578a5.3655,5.3655,0,0,0,3.3046,1.1611c1.4375,0,2.3062-.6533,2.3062-1.6181a1.5236,1.5236,0,0,0-1.522-1.5723c-.5234-.0645-.9326-.1279-1.5361-.21a3.23,3.23,0,0,1-3.0923-3.2734c0-1.9922,1.39-3.4,3.794-3.4a6.82,6.82,0,0,1,3.7778,1.2109l-.9805,1.4541a5.4356,5.4356,0,0,0-2.8794-.9c-1.0791,0-1.9453.5576-1.9453,1.6679,0,.6533.4732,1.3115,1.6524,1.49.311.05.7519.1142,1.3076.1777a3.324,3.324,0,0,1,3.19,3.3555c0,2.1435-1.5884,3.3828-4.0889,3.3828a6.5324,6.5324,0,0,1-4.45-1.6Z" fill="#fff"/><path d="M139.9868,143.4773h1.6685v2.5186h1.209v1.2754h-1.209v4.8261c0,.458.1806.6172.5874.6172h.6216v1.5723h-.8638a1.8972,1.8972,0,0,1-2.0137-2.043v-4.9726h-.834v-1.2754h.834Z" fill="#fff"/><path d="M148.793,153.5515h-.0322c-.3428.5713-.9185.8321-2.043.8321-1.8511,0-2.93-1.0928-2.93-2.5323a2.4318,2.4318,0,0,1,2.6968-2.455h2.3086v-.8682c0-.7822-.5073-1.06-1.7-1.06-.8687,0-1.2754.164-1.5728.6357l-1.3071-.9971a3.1433,3.1433,0,0,1,2.7974-1.2109c2.0434,0,3.4511.69,3.4511,2.7334v5.6582H148.793Zm0-2.7793h-1.9976c-.978,0-1.435.3936-1.435.9961,0,.5577.4384,1.0469,1.5678,1.0469,1.3892,0,1.8648-.1455,1.8648-1.4394Z" fill="#fff"/><path d="M152.7329,143.4773h1.6685v2.5186h1.207v1.2754h-1.207v4.8261c0,.458.1782.6172.5849.6172h.6221v1.5723h-.8643a1.8966,1.8966,0,0,1-2.0112-2.043v-4.9726h-.8364v-1.2754h.8364Z" fill="#fff"/><path d="M158.4468,150.7722a1.8544,1.8544,0,0,0,1.979,2.043,2.6079,2.6079,0,0,0,1.8149-.8l1.2115,1.0283a3.8142,3.8142,0,0,1-2.9942,1.34c-1.7,0-3.68-.8135-3.68-4.2188,0-3.2226,1.8145-4.27,3.419-4.27a3.3643,3.3643,0,0,1,3.4145,3.501v1.3759Zm3.4966-1.3759a1.7567,1.7567,0,1,0-3.4966,0Z" fill="#fff"/><path d="M171.4326,144.2127h-3.1855V142.64h8.1406v1.5723h-3.1855v10.0742h-1.77Z" fill="#fff"/><path d="M176.3516,146.96a3.5165,3.5165,0,0,1,5.041,0c.6357.7041.8965,1.39.8965,3.1729,0,1.8008-.2608,2.4863-.8965,3.19a3.5253,3.5253,0,0,1-5.041,0c-.6358-.7041-.8965-1.39-.8965-3.19C175.4551,148.3494,175.7158,147.6638,176.3516,146.96Zm3.8623,1.212a1.7838,1.7838,0,0,0-2.6836,0c-.3106.4384-.4063.7675-.4063,1.9609,0,1.2109.0957,1.54.4063,1.98a1.7954,1.7954,0,0,0,2.6836,0c.3105-.44.4062-.7686.4062-1.9609C180.62,148.9392,180.5244,148.61,180.2139,148.1717Z" fill="#fff"/><path d="M184.0527,145.9959h1.669v4.9365a1.6485,1.6485,0,1,0,3.2861,0v-4.9365h1.669v8.291h-1.669v-.8818h-.0322a2.6422,2.6422,0,0,1-2.1436.9785,2.7841,2.7841,0,0,1-2.7793-2.875Z" fill="#fff"/><path d="M192.8525,145.9959h1.668v.8818h.0322a2.6648,2.6648,0,0,1,2.1622-.9824,2.7647,2.7647,0,0,1,1.7324.64l-1.2119,1.4405a1.6277,1.6277,0,0,0-1.0967-.4121,1.5769,1.5769,0,0,0-1.6182,1.7373v4.9863h-1.668Z" fill="#fff"/><path d="M199.2744,142.64h1.668v1.669h-1.668Zm0,3.3555h1.668v8.291h-1.668Z" fill="#fff"/><path d="M203.4014,151.7508a3.4675,3.4675,0,0,0,2.6152,1.0644c.95,0,1.6367-.36,1.6367-1.0644,0-.585-.4394-.7686-1.0156-.8184l-1.4717-.1279A2.3324,2.3324,0,0,1,202.78,148.45c0-1.6865,1.3388-2.5547,3.09-2.5547a4.7465,4.7465,0,0,1,3.2549,1.1289l-1.0283,1.2109a3.703,3.703,0,0,0-2.2266-.7675c-1.0605,0-1.4218.4248-1.4218.9961,0,.3613.2607.7226,1.0976.7861l1.3711.0967a2.3027,2.3027,0,0,1,2.4043,2.4863c0,1.623-1.5039,2.5508-3.4326,2.5508a5.2136,5.2136,0,0,1-3.6475-1.4854Z" fill="#fff"/><path d="M211.1172,145.9959h1.6689v.8818h.0323a2.6538,2.6538,0,0,1,2.1572-.9824,2.9327,2.9327,0,0,1,2.34,1.083,3.2432,3.2432,0,0,1,2.6153-1.083,2.7845,2.7845,0,0,1,2.7646,2.88v5.5117h-1.6679v-4.94a1.6486,1.6486,0,1,0-3.2862,0v4.94h-1.6689v-4.94a1.6486,1.6486,0,1,0-3.2862,0v4.94h-1.6689Z" fill="#fff"/><path d="M229.0537,142.64H233.57c2.2715,0,3.4512,1.294,3.4512,3.127a2.5421,2.5421,0,0,1-1.7188,2.5V148.3a2.614,2.614,0,0,1,1.8965,2.6826,3.1788,3.1788,0,0,1-3.2363,3.3047h-4.9092Zm1.77,1.5723V147.55h2.55a1.68,1.68,0,1,0,0-3.3369Zm0,4.9052v3.501h2.7148a1.7561,1.7561,0,1,0,0-3.501Z" fill="#fff"/><path d="M238.8994,145.9959h1.669v4.9365a1.6485,1.6485,0,1,0,3.2861,0v-4.9365h1.6689v8.291h-1.6689v-.8818h-.0322a2.6436,2.6436,0,0,1-2.1436.9785,2.7835,2.7835,0,0,1-2.7793-2.875Z" fill="#fff"/><path d="M247.6992,145.9959h1.668v.8818h.0322a2.6647,2.6647,0,0,1,2.1621-.9824,2.765,2.765,0,0,1,1.7325.64l-1.212,1.4405a1.6273,1.6273,0,0,0-1.0966-.4121,1.5769,1.5769,0,0,0-1.6182,1.7373v4.9863h-1.668Z" fill="#fff"/><path d="M255.0352,150.7722a1.8546,1.8546,0,0,0,1.98,2.043,2.61,2.61,0,0,0,1.8144-.8l1.2109,1.0283a3.8133,3.8133,0,0,1-2.9941,1.34c-1.7,0-3.68-.8135-3.68-4.2188,0-3.2226,1.8154-4.27,3.42-4.27a3.3642,3.3642,0,0,1,3.4141,3.501v1.3759Zm3.497-1.3759a1.7569,1.7569,0,1,0-3.497,0Z" fill="#fff"/><path d="M266.3164,153.5515h-.0322c-.3428.5713-.919.8321-2.043.8321-1.8515,0-2.9306-1.0928-2.9306-2.5323a2.4321,2.4321,0,0,1,2.6972-2.455h2.3086v-.8682c0-.7822-.5078-1.06-1.7-1.06-.8691,0-1.2754.164-1.5732.6357l-1.3067-.9971a3.1419,3.1419,0,0,1,2.7969-1.2109c2.044,0,3.4512.69,3.4512,2.7334v5.6582h-1.668Zm0-2.7793h-1.998c-.9776,0-1.4346.3936-1.4346.9961,0,.5577.4385,1.0469,1.5674,1.0469,1.39,0,1.8652-.1455,1.8652-1.4394Z" fill="#fff"/><path d="M270.1553,145.9959h1.6689v4.9365a1.6485,1.6485,0,1,0,3.2862,0v-4.9365h1.6689v8.291H275.11v-.8818h-.0313a2.6455,2.6455,0,0,1-2.1445.9785,2.784,2.784,0,0,1-2.7793-2.875Z" fill="#fff"/><path d="M278.8584,142.64a9.8716,9.8716,0,0,1,0,13.3154h-.6533a14.9157,14.9157,0,0,0,0-13.3154Z" fill="#fff"/><path d="M337.11,140.0154a5.5054,5.5054,0,1,1,5.5058-5.5058A5.5041,5.5041,0,0,1,337.11,140.0154Zm0-9.7783a4.2736,4.2736,0,1,0,4.1972,4.2725A4.1465,4.1465,0,0,0,337.11,130.2371ZM338.1,137.43l-1.0654-2.2666h-.6221V137.43h-1.3086V131.575h2.3877a1.8532,1.8532,0,0,1,1.9463,1.84,1.6463,1.6463,0,0,1-1.0791,1.5508l1.2305,2.4639Zm-.7754-4.7754h-.9121v1.5215h.9121a.762.762,0,1,0,0-1.5215Z" fill="#fff"/></svg>