<svg id="Layer_1" xmlns="http://www.w3.org/2000/svg" viewBox="0 0 2000.5 107.7" width="2000.5" height="107.7"><style>.st0{opacity:.2;fill:#dee4e3;enable-background:new}</style><path class="st0" d="M.5 107.2l2000 .5V7.3c-203-23.1-307.8 46.2-513.1 49.7-165.8 2.8-321.5-43.8-608.1-51.2C525.1-3.3 346.5.8.5 1.4v105.8z"/><path class="st0" d="M2000.5 107.7H1.4v-80c50-2 219.8-6 352.8-3.7C513.9 26.7 678.8 7.7 838.5 4.3s321 25.9 475.2 67.5c64.2 17.3 132 18.1 186.7 5.3C1559.1 63.4 1749-6 2000.3 24.8l.2 82.9z"/><path d="M.5 107.7h2000V30c-60-6.7-140.8-9.3-199.7 1.3-347.5 62.8-447.8 61.8-704.4 27.5C847.7 25.7 645.7 6.9 360.2 7.7 219.9 8.1 139.8 6.2 0 18.9l.5 88.8z" opacity=".4" fill="#dee4e3"/><path d="M2.4 23.7v84h1998V23.6s-50.6-18.6-172.8 4c-216.4 40.1-373.9 66.5-560.9 69.8-111.1 1.9-222.1-5.9-332.3-19.6-202.1-25.1-375.2-38.1-569-50-196.4-12-362.9-4.1-363-4.1z" fill="#dee4e3"/></svg>