<svg id="Layer_1" data-name="Layer 1" xmlns="http://www.w3.org/2000/svg" width="93.4203mm" height="52.5749mm" viewBox="0 0 264.8134 149.0312"><title>title</title><path d="M31.0966,41.6355a.9109.9109,0,0,1-.186-.248,1.0793,1.0793,0,0,0-.1861-.2485,10.7846,10.7846,0,0,0,2.605-2.481.1563.1563,0,0,0-.248,0q-.1253.1253-.2481-.124a.2.2,0,0,1,.1241-.1861c.0815-.0405.124-.1435.124-.31-.4146.248-.8062.4961-1.1787.7441a6.3827,6.3827,0,0,1-1.1783.62,11.2572,11.2572,0,0,0,.9922-1.4882q.1224-.1224,0-.3726h-.248q-1.2416.8694-2.481,1.6748A19.9743,19.9743,0,0,0,26.63,41.0149c-.248.167-.3721.3316-.3721.4966-.083.1665-.1455.2481-.186.2481-.0425,0-.1045.0424-.186.124q-.8694.6217-1.6128,1.1167a17.7644,17.7644,0,0,0-1.4888,1.1162.3566.3566,0,0,1-.248.124c-.0835,0-.1241.0835-.1241.2481a1.8549,1.8549,0,0,1-1.1167,1.1167,3.4969,3.4969,0,0,0-1.3642.8681,7.0125,7.0125,0,0,1-1.2408.8067,7.0961,7.0961,0,0,0-1.2407.8061q-.372.2505-.7441.5586a1.5007,1.5007,0,0,1-.9927.31c-.1665,0-.248.124-.248.372-.0835.3316-.1665.4771-.2481.4341q-.1253-.0608-.3721-.186a1.3951,1.3951,0,0,1-.5585-.31,1.6823,1.6823,0,0,0-.4341-.31c-.0835,0-.1241-.1241-.1241-.3721q.2476-.2475-.124-.3726a.3959.3959,0,0,0-.372.2486,1.8915,1.8915,0,0,0-.3721.4961c0,.4145-.167.62-.4966.62-.1665,0-.248.124-.248.3721a9.8928,9.8928,0,0,1-.31,1.1787q-.186.558-.4341,1.1787c-.167.3315-.31.6416-.4341.93a1.3526,1.3526,0,0,0,.062,1.0546,20.2959,20.2959,0,0,0-.3725,2.233,6.2363,6.2363,0,0,1-.62,2.1088c-.1665.167-.1665.27,0,.3106.1645.0425.1645.145,0,.31-.1665.0831-.2481.3721-.2481.8682a5.2671,5.2671,0,0,1-.248.8687,1.393,1.393,0,0,1-.062.434,1.3322,1.3322,0,0,0-.062.4341,2.1232,2.1232,0,0,0-.1241.8687,9.0185,9.0185,0,0,0-.1865.93,7.4578,7.4578,0,0,0-.062,1.0546,4.2938,4.2938,0,0,1-.186,1.2408c-.1241.4145-.2286.8276-.31,1.24v1.1167c.0815.1665.103.2695.062.31a3.599,3.599,0,0,0-.31.5581,1.0468,1.0468,0,0,1-.0621.8066,3.3838,3.3838,0,0,0-.31.6821c-.0835.2481-.167.4961-.2481.7447-.0835.248-.167.4961-.248.7441a2.1586,2.1586,0,0,0-.1245.6821.6885.6885,0,0,1-.3721.5586c0,.083.124.124.3721.124.0815,0,.1245.0835.1245.2481a.549.549,0,0,1-.0625.248c-.0425.0835-.1045.0425-.186-.124-.1666-.1645-.2906-.186-.3721-.062-.0835.124-.124.1455-.124.062a.4194.4194,0,0,0-.1861-.3721c-.124-.0815-.1455-.2055-.062-.372a.5025.5025,0,0,0-.062-.3106c-.0425-.0405-.062-.143-.062-.31-.167-.1646-.2481-.1241-.2481.124a1.23,1.23,0,0,0-.124.5586,1.25,1.25,0,0,1-.124.5581,3.2885,3.2885,0,0,0,.124,1.4888q.3721.6218-.3725.4961-.4967-.2469-.2481.248.2476.372-.124.5586a.5959.5959,0,0,0-.3721.5581h-.124a.1091.1091,0,0,1-.124-.124A1.3426,1.3426,0,0,0,4.3,76.2473a4.7838,4.7838,0,0,0,.124,1.8609,3.97,3.97,0,0,1,.2481,1.1167q0,.62-.7441.3721a5.9168,5.9168,0,0,1-2.6055-1.6128,5.5518,5.5518,0,0,1-.7442-1.7369A14.98,14.98,0,0,1,.02,72.65q-.0609-1.86.062-3.7217c0-.6606.0214-1.3027.062-1.9228.0429-.62.062-1.26.062-1.9229q.2505-2.3555.4966-4.59.25-2.2324.7441-4.59.3722-1.9833.6826-3.9077.3076-1.9218.6822-4.0322l1.1167-7.0713q.372-1.86.8061-3.66.4336-1.7966.9307-3.66.4937-1.8612.9922-3.7217.4943-1.8611.9926-3.7217.6189-2.108,1.3643-4.0937Q9.759,20.051,10.6269,17.94q.62-1.3638,1.1167-2.729.4944-1.3638,1.1167-2.7295a2.1109,2.1109,0,0,0,0-1.7368,1.4472,1.4472,0,0,1,0-1.1782c.1645-.3726.3291-.7642.4961-1.1787q.1223-.2477.248-.5581a1.8409,1.8409,0,0,0,.124-.6826c-.0834-.1646,0-.3721.2481-.62a21.37,21.37,0,0,0,3.35-5.3344A2.2617,2.2617,0,0,1,19.0629.076a4.0994,4.0994,0,0,1,2.5435.31,12.7168,12.7168,0,0,1,2.1709,1.3028,2.0267,2.0267,0,0,1,.372.496,1.4638,1.4638,0,0,0,.7442.8687A1.6151,1.6151,0,0,1,25.39,4.4182a10.8085,10.8085,0,0,1,.4341,1.3643q.186.7449.31,1.4888c.0816.3315.3721.415.8687.248l1.1162-.372q.7449-.3722,1.4887-.8062a8.0726,8.0726,0,0,1,1.4888-.6826A20.2445,20.2445,0,0,1,35.19,4.0457q.8664-.2469,1.6748-.4961.8056-.2469,1.6748-.4961,1.4889-.372,3.04-.7446a9.6059,9.6059,0,0,1,3.04-.2481q.8664.1252,1.6748.1861a4.1847,4.1847,0,0,1,1.55.4345,4.5121,4.5121,0,0,0,1.1167.31,3.13,3.13,0,0,1,.9926.31,26.1817,26.1817,0,0,1,4.2178,2.233,1.603,1.603,0,0,0,.5581.3725,1.69,1.69,0,0,1,.5586.3721,8.6407,8.6407,0,0,1,4.0938,4.4658,12.6057,12.6057,0,0,1,.8061,2.0469,13.2133,13.2133,0,0,1,.4346,2.0473,2.7236,2.7236,0,0,0,.124.8682,2.8034,2.8034,0,0,1,.124.8687q-.2505,1.3659-.5586,2.5429a6.4061,6.4061,0,0,1-1.1782,2.295,9.0077,9.0077,0,0,0-.8686,1.3027,8.9561,8.9561,0,0,1-.8682,1.3027q-.8694.9939-1.7988,1.9849a26.7334,26.7334,0,0,1-1.9229,1.8608q-.8694.7442-1.6748,1.4268a15.51,15.51,0,0,1-1.7988,1.3022,7.9,7.9,0,0,0-1.1787.8687q-.5582.4972-1.1787.9927a11.3066,11.3066,0,0,1-1.4883.9921q-.9946.4974-1.9229,1.0547-.9309.5581-1.7993,1.1783a30.778,30.778,0,0,1-4.2178,2.6054.6718.6718,0,0,0-.31.2481.67.67,0,0,1-.31.248,5.3254,5.3254,0,0,1-1.1167.62,1.8754,1.8754,0,0,0-.9922.8687q-.7448.7441-1.5507,1.4267A15.5611,15.5611,0,0,1,32.3373,43a.2514.2514,0,0,0-.186.062c-.043.0425-.1455.021-.31-.062a.42.42,0,0,1,.186-.3726.9172.9172,0,0,0,.31-.3721.9853.9853,0,0,1,.2481-.186c.0815-.0405,0-.1435-.2481-.31l.1241-.1241a6.7431,6.7431,0,0,1,1.3642-1.0547A6.64,6.64,0,0,0,35.19,39.5266c.33-.2485.64-.4751.9306-.6826.2886-.2055.5987-.4341.93-.6821q.2475-.2475.3726-.3721a1.3787,1.3787,0,0,0,.248-.4966c-.415.2481-.7871.4771-1.1167.6827q-.4973.31-.9927.5581-.9939.7441-2.0468,1.4267-1.0555.6834-2.0469,1.4268Q31.3435,41.3875,31.0966,41.6355ZM15.5893,42.38q.9916-.6189,1.9228-1.2407.9309-.6189,1.7989-1.24.7448-.62,1.5507-1.1787t1.5508-1.1787Q24.52,35.9307,26.5683,34.44q2.047-1.489,4.1562-2.9775t4.0938-3.1016Q36.801,26.7506,38.912,25.26q2.8528-2.108,5.3345-4.2178,1.3638-1.2385,2.7915-2.481,1.4245-1.2386,2.7915-2.6054a8.9706,8.9706,0,0,0,.8682-1.3028q.372-.68.7441-1.3022a2.5483,2.5483,0,0,0,.1865-.4966.3033.3033,0,0,0-.1865-.3721,1.3826,1.3826,0,0,1-.4961-.4961,1.89,1.89,0,0,0-.9922-.8686c-.3315-.1646-.6416-.3291-.9306-.4961q-.4358-.2469-.93-.4961c-.167-.0816-.3315-.165-.4966-.2481a1.1225,1.1225,0,0,0-.4961-.124,28.2475,28.2475,0,0,0-4.9624.8682,14.3071,14.3071,0,0,0-2.3569.6826q-1.1169.4357-2.3569.8062-1.3668.4973-2.6675.9306a27.7911,27.7911,0,0,0-2.667,1.0542q-1.2422.6227-2.3574,1.1787-1.1163.5582-2.357,1.1783A11.3966,11.3966,0,0,0,24.77,17.94c-.3311.2481-.6416.4771-.93.6826a6.3507,6.3507,0,0,0-.8067.6822q-.372.25-.7441.4961a1.8866,1.8866,0,0,0-.62.7446A20.0509,20.0509,0,0,1,20.8,22.9026a19.7907,19.7907,0,0,0-.8681,2.357q-.4974,2.1116-1.0547,4.0322-.5581,1.9248-1.1787,4.0317a7.4644,7.4644,0,0,0-.3721,1.1787c-.0835.3721-.1665.7657-.248,1.1783-.0835.4965-.1456.9731-.1861,1.4267a6.4375,6.4375,0,0,1-.31,1.4268,9.0844,9.0844,0,0,0-.5586,1.7988Q15.8373,41.263,15.5893,42.38Zm3.35,5.4585q.2468-.2469,1.1787-.9922a9.2206,9.2206,0,0,1,1.4268-.9927.2458.2458,0,0,1-.1245.3721.2449.2449,0,0,0-.1241.3725c.1651.1665.1241.2481-.124.2481a1.5611,1.5611,0,0,0-1.0542.3721,3.7494,3.7494,0,0,1-1.0547.62Zm6.8232-5.3345a4.9411,4.9411,0,0,1,2.729-1.8608A2.6006,2.6006,0,0,1,27.1269,41.76q-.1253.6218-.6206.496A.6288.6288,0,0,0,25.7621,42.5037Zm4.0938.6206a8.669,8.669,0,0,1-2.2329,1.7368A8.7658,8.7658,0,0,1,29.8559,43.1243Zm-1.3648-.8687a1.9876,1.9876,0,0,1,1.6128-1.2407q-.372.2505-.7441.5586C29.1117,41.7806,28.8207,42.0076,28.4911,42.2556Zm2.2334.9927a.1988.1988,0,0,0-.186.124c-.043.0831-.1455.0831-.31,0,.0815-.165.165-.248.2485-.248a.3605.3605,0,0,0,.248-.124A.1568.1568,0,0,1,30.7245,43.2483Zm.3721-1.6128a.2514.2514,0,0,0-.186.062.2523.2523,0,0,1-.1861.0621v-.1241C30.8056,41.554,30.93,41.554,31.0966,41.6355Z" fill="#fff"/><path d="M68.4374,59.1277a1.048,1.048,0,0,1-.062.8062,2.848,2.848,0,0,1-.4346.5581,3.3243,3.3243,0,0,1-.62.8686,3.322,3.322,0,0,0-.62.8682c-.248.2485-.3725.415-.3725.4966a3.3951,3.3951,0,0,1-.5581,1.4887q-.4359.6219-.93,1.24-1.2415,1.6143-2.4815,3.1636-1.2414,1.5526-2.4809,3.2876a2.1473,2.1473,0,0,0-.4341.6821,4.9553,4.9553,0,0,1-.4346.8066,6.0942,6.0942,0,0,1-.7441.8682Q57.27,76.0013,56.28,77.6741A15.874,15.874,0,0,1,55.039,79.597q-.6219.62-1.1167,1.0546-.4966.4329-1.1162.93a3.168,3.168,0,0,0-.6826.6206,3.2361,3.2361,0,0,1-.6822.62,10.4875,10.4875,0,0,1-5.8305,2.1089,5.3863,5.3863,0,0,0-1.1787.1241c-.3721.0815-.7657.165-1.1788.248a1.3224,1.3224,0,0,0-.434.0625.5741.5741,0,0,1-.4341-.0625,5.6974,5.6974,0,0,0-.6821-.186,1.31,1.31,0,0,0-.6827.062q-.372.1222-1.1162-.3721a8.1969,8.1969,0,0,0-2.1093-1.24.9273.9273,0,0,1-.3721-.3106.9378.9378,0,0,0-.3721-.31,4.376,4.376,0,0,1-1.0547-.8682,7.7015,7.7015,0,0,1-.8061-1.1167,8.3271,8.3271,0,0,1-1.3648-2.1089,19.9935,19.9935,0,0,1-.8681-2.3569q-.2477-.8672-.4966-1.6748-.2469-.8056-.4961-1.7988a9.1686,9.1686,0,0,1-.124-1.4888,8.9518,8.9518,0,0,0-.1241-1.4888,5.8572,5.8572,0,0,0-.124-1.3647.9858.9858,0,0,1-.124-.62q.6218-3.1,1.1162-5.1484a25.332,25.332,0,0,1,.9927-3.2876v.124q1.2385-2.6052,2.2329-5.21,1.3638-3.597,2.9155-6.9473a51.609,51.609,0,0,1,3.66-6.5752,28.1049,28.1049,0,0,1,2.8535-3.5356,18.0348,18.0348,0,0,1,3.4736-2.791,3.0492,3.0492,0,0,1,1.3023-.4341q.68-.0615,1.3027-.062a1.1718,1.1718,0,0,1,.7442.31,8.53,8.53,0,0,0,.7446.5581.7916.7916,0,0,0,.62,0,3.3124,3.3124,0,0,1,1.1167-.7441,1.4255,1.4255,0,0,1,.8062-.2485h.8066a10.6535,10.6535,0,0,1,3.35,1.3647,2.1858,2.1858,0,0,1,.9922,1.3648l.3721,1.4887a1.5351,1.5351,0,0,0,.4965,1.1162c.1646.167.2266.3106.1861.4346a1.3314,1.3314,0,0,0-.062.4341,7.5145,7.5145,0,0,1,.186,2.8535,9.7735,9.7735,0,0,1-.8066,2.729,5.6857,5.6857,0,0,1-1.24,2.1089c-.167.0835-.248.167-.248.248a.36.36,0,0,1-.1245.2486,1.913,1.913,0,0,0-.31.8061c-.0425.291-.269.4771-.6821.5581a2.6754,2.6754,0,0,1-.6821.6826,2.0264,2.0264,0,0,0-.6827.93c-.1665.4151-.31.7657-.434,1.0547a5.2968,5.2968,0,0,0-.31,1.0542.9319.9319,0,0,1-.31.4966.9312.9312,0,0,0-.31.3721q-.3722.6225-.8682,1.3027-.4972.6834-.8686,1.3022a8.9337,8.9337,0,0,1-1.1162,1.3648,8.8408,8.8408,0,0,0-1.1167,1.3647,18.6249,18.6249,0,0,1-1.6748,2.357q-.93,1.1169-1.7989,2.3574l-.4961.4961a1.5425,1.5425,0,0,1-.62.3721,3.2433,3.2433,0,0,0-2.1094,1.8608q-.372.4973-.7441.9307a4.5858,4.5858,0,0,0-.62.93,1.8944,1.8944,0,0,0-.6206,1.3648v4.59a8.3925,8.3925,0,0,0,0,2.0469,15.9551,15.9551,0,0,0,.372,2.0469,1.38,1.38,0,0,0,.1241.62c.165.4131.31.64.4345.6826a2.0564,2.0564,0,0,0,.8062-.062A6.2309,6.2309,0,0,0,47.1,79.597a12.3782,12.3782,0,0,0,2.1089-1.4888,12.793,12.793,0,0,0,1.7368-1.55q.7441-.8057,1.6128-1.6748a3.1879,3.1879,0,0,1,.62-.6826c.248-.2056.496-.4341.7441-.6822s.4966-.5156.7446-.8066q.3722-.4329.7442-.8061a6.36,6.36,0,0,0,.6826-.8067c.2051-.2886.4341-.5986.6821-.93a19.3367,19.3367,0,0,1,3.5977-3.8457,6.8461,6.8461,0,0,0,.4961-.5586,6.972,6.972,0,0,1,.4965-.5581q.7441-.9917,1.4888-1.9228t1.4883-1.9229a2.0646,2.0646,0,0,1,1.3647-.7441,2.1492,2.1492,0,0,0,.62-.2485,3.05,3.05,0,0,0,.3725-.4341,2.894,2.894,0,0,1,.3721-.4341Q67.8168,58.7557,68.4374,59.1277ZM45.6108,58.011a11.2186,11.2186,0,0,0-.4966,1.8609c.165-.0816.2485-.1436.2485-.1861,0-.0405.0406-.1025.124-.186q.7441-.9916,1.4888-1.9229t1.4883-1.7988q.9917-1.2386,1.7988-2.4194a16.8308,16.8308,0,0,0,1.4268-2.543q.9917-1.9827,1.8608-3.9077a21.4834,21.4834,0,0,1,2.1089-3.66.6826.6826,0,0,0,.2485-.4345.9939.9939,0,0,1,.1241-.4341,12.8938,12.8938,0,0,0,.186-1.3648,7.356,7.356,0,0,0-.062-1.6128,5.7077,5.7077,0,0,0-1.9849,1.9854,5.5461,5.5461,0,0,1-.6206,1.1162q-.8694,1.2414-1.7368,2.7295-.6218.9939-1.1162,1.9228-.4973.93-.9927,1.9229c-.1665.3315-.31.6416-.4341.93-.124.291-.27.601-.434.9306a7.6916,7.6916,0,0,0-.9927,1.4888,12.1967,12.1967,0,0,1-.9927,1.6128,4.8,4.8,0,0,0-.4961,1.1162,3.2119,3.2119,0,0,0-.4341,1.4268A4.8836,4.8836,0,0,1,45.6108,58.011Z" fill="#fff"/><path d="M123.1445,54.1653a1.1271,1.1271,0,0,1,.124,1.4888,5.6654,5.6654,0,0,1-1.2407,1.7368A17.311,17.311,0,0,1,119.7949,59.5a3.4265,3.4265,0,0,0-1.0547.9922,9.3533,9.3533,0,0,1-1.0542,1.2407q-1.7388,2.1108-3.5977,3.97l-4.4663,4.8384-5.7065,5.7065q-.4974.4974-.9927.9307a7.9938,7.9938,0,0,0-.9922,1.0542,15.8067,15.8067,0,0,1-2.3574,1.7368q-1.2415.7449-2.605,1.4888a3.1442,3.1442,0,0,1-1.0547.31,9.6751,9.6751,0,0,1-1.0542.0625q-.8694-.1252-1.7988-.1866a2.34,2.34,0,0,1-1.5508-.6821c-.248-.248-.4961-.477-.7446-.6821q-.3722-.3112-.7442-.6826c-.1665-.2481-.3315-.5176-.4961-.8062a3.8149,3.8149,0,0,0-.6206-.8066c-.083-.083-.124-.1451-.124-.1861,0-.0425-.0425-.1045-.124-.186a2.8413,2.8413,0,0,1-.4961-.7441,7.1236,7.1236,0,0,1-.6821-2.6055,18.2005,18.2005,0,0,1,.062-2.605q.1215-1.6113.31-3.1636a24.6671,24.6671,0,0,1,.5581-3.0395q.4944-1.9827,1.1167-3.7837.6189-1.7967,1.24-3.66.7449-2.233,1.6128-4.4663t1.8608-4.4658q-.7441.7442-1.4263,1.4267T91.51,51.9324q-1.3666,1.7388-2.6675,3.2871a30.7376,30.7376,0,0,1-2.791,2.9155q-.8694.8694-1.6748,1.6128a12.739,12.739,0,0,0-1.5508,1.7369q-1.861,2.233-3.8457,4.9a21.2114,21.2114,0,0,0-2.9775,5.3965,1.2065,1.2065,0,0,1-.5581.8682,1.2027,1.2027,0,0,0-.5586.8686,5.4469,5.4469,0,0,1-.93,2.0469q-.6834.93-1.3027,1.9229-.6219.9916-1.24,1.8608a14.2844,14.2844,0,0,1-1.4887,1.7368c-.167.1651-.2911.2056-.3726.1241-.083,0-.124-.021-.124-.0621s-.0425-.062-.124-.062h-.1241a.9408.9408,0,0,1-.7441.5581,3.005,3.005,0,0,0-.9927.3106q-1.3667.6189-1.8608-.2486a4.55,4.55,0,0,0-.5581-.6821,1.7628,1.7628,0,0,1-.4341-.6821c-.1651,0-.2481.04-.2481.124,0,.0811-.0815.1646-.2485.2481q-.7441-.8694-1.3643-.1241c-.165-.0835-.2055-.1455-.124-.186q.1245-.0645,0-.186a3.6133,3.6133,0,0,0-.2485-.4346,2.54,2.54,0,0,1-.2481-.5581,2.6944,2.6944,0,0,1-.5581.62.8986.8986,0,0,0-.31.7446.9079.9079,0,0,1-.5586-.6206,1.0944,1.0944,0,0,0-.31-.62,9.1582,9.1582,0,0,1-.8061-4.9624,42.2751,42.2751,0,0,1,.93-4.9619,13.727,13.727,0,0,1,.7447-2.6055q.4972-1.2386.9922-2.4809a15.3258,15.3258,0,0,0,.9926-2.4815q.3721-1.2385.7442-2.605.9946-2.2331,2.4194-5.4585t3.1011-6.9472q1.6751-3.7222,3.4116-7.5679,1.7358-3.8437,3.2256-7.1953a6.9393,6.9393,0,0,1,.5586-.4961c.2051-.1645.4341-.33.6821-.4961a.6726.6726,0,0,0,.31-.248,1.7678,1.7678,0,0,1,.31-.3726q.9918-.9909,2.2334.124a1.1931,1.1931,0,0,0,.4341.3106c.124.0425.2676-.062.4341-.3106a.8892.8892,0,0,1,.7441-.124,1.5606,1.5606,0,0,1-.372.6206,1.5629,1.5629,0,0,0-.3721.7442.7489.7489,0,0,0,.4961-.4341.7531.7531,0,0,1,.4966-.4341,5.3089,5.3089,0,0,1,.248.8682,1.8779,1.8779,0,0,0,1.1162,1.2407,2.8413,2.8413,0,0,1,1.6128,2.8535c0,.4145.02.8486.062,1.3022a4.5729,4.5729,0,0,1-.062,1.3028,12,12,0,0,1-.372,3.04,17.2646,17.2646,0,0,1-.9927,2.791,12.0365,12.0365,0,0,0-.93,2.4815q-.3113,1.2414-.6821,2.605a9.49,9.49,0,0,0-.3726,1.4887,14.7887,14.7887,0,0,1-.3721,1.6128,4.9974,4.9974,0,0,1-.434,1.2407q-.3114.6219-.5581,1.24c-.0835.167-.167.3315-.2486.4966a1.3794,1.3794,0,0,0-.124.62,6.9638,6.9638,0,0,0,1.9849-2.1089q1.7358-2.3555,3.5981-4.4663,1.86-2.108,3.7217-4.3418,1.2386-1.489,2.543-2.8535,1.3029-1.3638,2.6674-2.8531a24.108,24.108,0,0,1,6.5747-5.21,4.991,4.991,0,0,1,2.8536-.6206,9.63,9.63,0,0,1,3.1635.7446,4.8064,4.8064,0,0,1,2.295,2.2329,4.9037,4.9037,0,0,1-.3721,5.8306,15.5914,15.5914,0,0,0-1.0547,1.6748,15.7554,15.7554,0,0,1-1.0542,1.6748,14.6041,14.6041,0,0,1-1.4888,2.1709q-.8694,1.0554-1.6128,2.0474-.8694,1.2414-1.5507,2.4189-.6834,1.1807-1.3028,2.543a20.8574,20.8574,0,0,1-1.1162,2.3574,11.7907,11.7907,0,0,0-.9927,2.3569q-.6217,2.111-1.3647,4.0318Q96.72,65.7044,96.1,67.8118a30.87,30.87,0,0,0-.8686,5.21,2.51,2.51,0,0,0,0,1.1162q.1223.4973.248,1.1167v.124a.6271.6271,0,0,0,.7447.248,2.12,2.12,0,0,0,.8681-.124A20.2705,20.2705,0,0,0,99.9457,73.89a17.6323,17.6323,0,0,1,1.4888-1.1167,8.8156,8.8156,0,0,0,1.3643-1.1162q.6195-.62,1.3027-1.2407.68-.62,1.3027-1.2407,1.3638-1.3631,2.667-2.543,1.303-1.1778,2.6675-2.5435c.1646-.1645.3506-.372.5581-.62a3.1948,3.1948,0,0,1,.6826-.62l2.2329-1.8608c.2481-.1651.5157-.33.8062-.4966a3.8036,3.8036,0,0,0,.8066-.62q.8665-.7441,1.6748-1.5508.8051-.8049,1.6748-1.5508,1.86-1.3638,3.5977-2.481C122.7724,54.2078,122.8964,54.1653,123.1445,54.1653ZM71.5366,77.9842a.22.22,0,0,0,.248-.2481l-.124-.124C71.5771,77.6121,71.5366,77.7361,71.5366,77.9842Z" fill="#fff"/><path d="M133.3154,72.2776a14.2975,14.2975,0,0,0-1.24,1.3648,11.5963,11.5963,0,0,1-2.6054,3.1015c-.4961.4146-.9922.8257-1.4888,1.24a5.962,5.962,0,0,1-1.7368.9926.4985.4985,0,0,0-.3721.1241,4.8164,4.8164,0,0,1-2.0469.9306c-.7036.1241-1.3862.2671-2.0468.4341a2.1629,2.1629,0,0,1-1.2408.124c-.4145-.0835-.8276-.167-1.2407-.248a.5564.5564,0,0,1-.248-.062.534.534,0,0,0-.2481-.062,3.9092,3.9092,0,0,1-3.04-.7447q-1.3023-.9939-2.543-1.9848a1.3518,1.3518,0,0,1-.4961-.62,25.36,25.36,0,0,1-1.4888-2.9776,8.3068,8.3068,0,0,1-.6206-3.2256,9.1736,9.1736,0,0,1,0-2.1089q.1253-1.1161.2486-2.1088a26.82,26.82,0,0,1,.8681-4.5284q.6226-2.1687,1.3648-4.28a7.0278,7.0278,0,0,1,.6821-1.6128,14.6318,14.6318,0,0,0,.8066-1.6128,22.96,22.96,0,0,0,1.7369-3.1016,22.7571,22.7571,0,0,1,1.7368-3.1016q.6189-.8664,1.0542-1.6123a10.7689,10.7689,0,0,1,1.0547-1.4887q1.2384-1.6115,2.3569-3.1636,1.1169-1.55,2.4814-3.1636a17.4774,17.4774,0,0,1,4.3418-3.7217l4.0938-2.6049a2.9647,2.9647,0,0,1,1.1787-.4346c.3721-.0405.7637-.1026,1.1787-.186a4.6112,4.6112,0,0,0,1.8608.8066,2.5016,2.5016,0,0,1,1.6128,1.0542q.4944.4972.93.8686.4337.3722.9307.7442a.4651.4651,0,0,0,.7441,0q.62-.8665,1.1787-.8062a9.28,9.28,0,0,1,1.4268.31,4.4552,4.4552,0,0,1,1.7988.93q.8049.6833,1.5508,1.4267a2.8108,2.8108,0,0,1,.3721.8687,2.685,2.685,0,0,0,.372.8681c.1646.4151.33.8277.4961,1.2408a3.6513,3.6513,0,0,1,.2481,1.3647v.7441q-.25.9947-.4961,1.9229-.25.9309-.4961,1.9229a8.4443,8.4443,0,0,0-.3721,1.1167q-.1252.4973-.2485,1.1167a10.63,10.63,0,0,1-.3721,1.7988q-.25.8079-.4961,1.6748-.6225,1.7381-1.1167,3.4111a23.7571,23.7571,0,0,0-.7441,3.4116,10.0991,10.0991,0,0,0-.3721,1.4268q-.1252.6834-.248,1.4268-.25,1.4889-.4966,2.9775-.25,1.4883-.4961,2.977-.25,1.3668-.4341,2.6675-.186,1.3023-.4341,2.667a2.8864,2.8864,0,0,1-.0625.5586.5835.5835,0,0,0,.1865.5581,7.4128,7.4128,0,0,0,2.9771-2.3569q1.6113-1.8611,3.1016-3.7837t2.9775-3.9082q1.6105-2.1079,2.9771-4.2178a45.6291,45.6291,0,0,1,3.1015-4.2178q1.1169-1.3636,2.2329-2.7915a31.0166,31.0166,0,0,1,2.4815-2.7915,6.3786,6.3786,0,0,1,.8061-.6821,7.0967,7.0967,0,0,1,.9307-.5581,2.57,2.57,0,0,1,1.1162,0c.165,0,.2485.207.2485.62a5.5634,5.5634,0,0,1-.7446,1.7368v.1241a2.4475,2.4475,0,0,1-.5581,1.9848,16.9981,16.9981,0,0,0-1.3027,1.6128q-1.1163,1.7388-2.357,3.8457a3.2443,3.2443,0,0,0-.186.4346,3.9426,3.9426,0,0,1-.186.4341,11.7412,11.7412,0,0,0-1.2408,2.0468q-.4973,1.0555-1.1167,2.1709-.6218,1.117-1.1782,2.1089a11.8993,11.8993,0,0,1-1.4267,1.9854q-.7449.9939-1.5508,2.0469a17.6148,17.6148,0,0,0-1.4268,2.1709q-.25.4972-.4961.9921a3.9217,3.9217,0,0,1-.7446.9927.2192.2192,0,0,0-.2481.2481,2.7481,2.7481,0,0,1-.9921,1.6748q-.7449.558-1.4888,1.1787c-.415.3315-.8276.64-1.2407.93q-.6219.4335-1.2408.8066a2.0106,2.0106,0,0,1-.496.3721,5.2028,5.2028,0,0,1-.62.248,11.0776,11.0776,0,0,0-1.4887.9927,3.6351,3.6351,0,0,1-2.481.3721l-1.8613-.7447q-.6219-.372-1.24-.7441a4.1645,4.1645,0,0,1-1.1167-.9927,12.684,12.684,0,0,1-1.0542-1.1782,2.9323,2.9323,0,0,1-.5585-1.4268,6.9629,6.9629,0,0,0-.62-1.3647A5.54,5.54,0,0,1,133.3154,72.2776Zm6.4511-32.1308a1.0247,1.0247,0,0,0-.5581.124,3.7758,3.7758,0,0,1-.4345.248,7.3753,7.3753,0,0,1-.93.9927,4,4,0,0,0-.8067.9922,15.2714,15.2714,0,0,1-1.3642,1.8608,15.3647,15.3647,0,0,0-1.3648,1.8609,3.34,3.34,0,0,1-1.1167.9306,3.3531,3.3531,0,0,0-1.1162.93q-.7449.9947-1.5508,1.9229a11.9478,11.9478,0,0,0-1.4267,2.0473l-.7442,1.4883a5.2344,5.2344,0,0,1-.9926,1.3648,1.9162,1.9162,0,0,0-.3721.4965,1.9548,1.9548,0,0,1-.3721.4961,12.9755,12.9755,0,0,1-.8686,1.6748,12.9,12.9,0,0,0-.8682,1.6748q-.8694,1.86-1.6748,3.66a30.47,30.47,0,0,0-1.4267,3.9077c-.0835.2481-.167.5176-.2481.8062-.0835.291-.167.6011-.2485.9306-.1665.4151-.3311.8277-.4961,1.2408a6.4547,6.4547,0,0,0-.3721,1.3642c-.0835.4151-.1665.8687-.248,1.3648a9.9867,9.9867,0,0,1-.3721,1.4887,1.7144,1.7144,0,0,0,.124.7447q.3721,1.4883,1.4888.62a12.8432,12.8432,0,0,0,1.6123-1.3648q.7449-.7441,1.4888-1.4887a43.07,43.07,0,0,0,2.9155-4.0318q1.3021-2.047,2.543-4.28,1.9833-3.35,3.8461-6.0791c.1646-.248.3291-.496.4961-.7441a5.58,5.58,0,0,0,.4961-.9927q.4944-1.9826,1.0547-3.8457.5581-1.8611,1.1782-3.7217.62-2.1078,1.3028-4.28Q139.02,42.3819,139.7665,40.1468Z" fill="#fff"/><path d="M214.2,54.1653a1.1272,1.1272,0,0,1,.1241,1.4888,5.6641,5.6641,0,0,1-1.2408,1.7368A17.2981,17.2981,0,0,1,210.8505,59.5a3.4287,3.4287,0,0,0-1.0547.9922,9.3458,9.3458,0,0,1-1.0542,1.2407q-1.7387,2.1108-3.5976,3.97l-4.4663,4.8384-5.7066,5.7065q-.4973.4974-.9927.9307a7.9934,7.9934,0,0,0-.9921,1.0542,15.8076,15.8076,0,0,1-2.3575,1.7368q-1.2414.7449-2.6049,1.4888a3.1455,3.1455,0,0,1-1.0547.31,9.6751,9.6751,0,0,1-1.0542.0625q-.8694-.1252-1.7989-.1866a2.34,2.34,0,0,1-1.5507-.6821c-.2481-.248-.4961-.477-.7447-.6821q-.372-.3112-.7441-.6826c-.1665-.2481-.3316-.5176-.4961-.8062a3.8182,3.8182,0,0,0-.6206-.8066c-.083-.083-.124-.1451-.124-.1861,0-.0425-.0425-.1045-.1241-.186a2.8413,2.8413,0,0,1-.496-.7441,7.1259,7.1259,0,0,1-.6822-2.6055,18.2151,18.2151,0,0,1,.062-2.605q.1217-1.6113.31-3.1636a24.6484,24.6484,0,0,1,.5581-3.0395q.4944-1.9827,1.1167-3.7837.6189-1.7967,1.24-3.66.7449-2.233,1.6128-4.4663t1.8609-4.4658q-.7441.7442-1.4263,1.4267t-1.3027,1.4268q-1.3668,1.7388-2.6675,3.2871a30.75,30.75,0,0,1-2.791,2.9155q-.8694.8694-1.6748,1.6128a12.739,12.739,0,0,0-1.5508,1.7369q-1.8611,2.233-3.8457,4.9a21.2149,21.2149,0,0,0-2.9776,5.3965,1.2062,1.2062,0,0,1-.5581.8682,1.203,1.203,0,0,0-.5586.8686,5.4467,5.4467,0,0,1-.93,2.0469q-.6834.93-1.3028,1.9229-.6217.9916-1.24,1.8608a14.2767,14.2767,0,0,1-1.4888,1.7368c-.167.1651-.291.2056-.3725.1241-.083,0-.1241-.021-.1241-.0621s-.0424-.062-.124-.062h-.124a.941.941,0,0,1-.7441.5581,3.005,3.005,0,0,0-.9927.3106q-1.3668.6189-1.8609-.2486a4.544,4.544,0,0,0-.5581-.6821,1.7637,1.7637,0,0,1-.434-.6821c-.1651,0-.2481.04-.2481.124,0,.0811-.0815.1646-.2485.2481q-.7442-.8694-1.3643-.1241c-.165-.0835-.2056-.1455-.124-.186q.1245-.0645,0-.186a3.6406,3.6406,0,0,0-.2485-.4346,2.54,2.54,0,0,1-.2481-.5581,2.6967,2.6967,0,0,1-.5581.62.8983.8983,0,0,0-.31.7446.9081.9081,0,0,1-.5586-.6206,1.0943,1.0943,0,0,0-.31-.62,9.1582,9.1582,0,0,1-.8062-4.9624,42.2756,42.2756,0,0,1,.93-4.9619,13.7341,13.7341,0,0,1,.7446-2.6055q.4974-1.2386.9922-2.4809a15.3173,15.3173,0,0,0,.9927-2.4815q.3722-1.2385.7441-2.605.9946-2.2331,2.4195-5.4585t3.1011-6.9472q1.675-3.7222,3.4116-7.5679,1.7358-3.8437,3.2256-7.1953a6.9221,6.9221,0,0,1,.5586-.4961c.205-.1645.434-.33.6821-.4961a.6722.6722,0,0,0,.31-.248,1.7725,1.7725,0,0,1,.31-.3726q.9917-.9909,2.2334.124a1.1923,1.1923,0,0,0,.4341.3106c.124.0425.2676-.062.4341-.3106a.8892.8892,0,0,1,.7441-.124,1.56,1.56,0,0,1-.3721.6206,1.5629,1.5629,0,0,0-.372.7442.7491.7491,0,0,0,.4961-.4341.7532.7532,0,0,1,.4965-.4341,5.3034,5.3034,0,0,1,.2481.8682,1.8777,1.8777,0,0,0,1.1162,1.2407,2.8414,2.8414,0,0,1,1.6128,2.8535c0,.4145.0195.8486.062,1.3022a4.58,4.58,0,0,1-.062,1.3028,11.995,11.995,0,0,1-.3721,3.04,17.255,17.255,0,0,1-.9927,2.791,12.036,12.036,0,0,0-.93,2.4815q-.3114,1.2414-.6822,2.605a9.4789,9.4789,0,0,0-.3725,1.4887,14.8121,14.8121,0,0,1-.3721,1.6128,4.9937,4.9937,0,0,1-.4341,1.2407q-.3113.6219-.5581,1.24c-.0835.167-.167.3315-.2485.4966a1.3794,1.3794,0,0,0-.124.62,6.9636,6.9636,0,0,0,1.9848-2.1089q1.736-2.3555,3.5982-4.4663,1.86-2.108,3.7217-4.3418,1.2384-1.489,2.5429-2.8535t2.6675-2.8531a24.108,24.108,0,0,1,6.5747-5.21,4.9906,4.9906,0,0,1,2.8535-.6206,9.6312,9.6312,0,0,1,3.1636.7446,4.8062,4.8062,0,0,1,2.2949,2.2329,4.9037,4.9037,0,0,1-.3721,5.8306,15.59,15.59,0,0,0-1.0546,1.6748,15.7715,15.7715,0,0,1-1.0542,1.6748,14.6192,14.6192,0,0,1-1.4888,2.1709q-.8694,1.0554-1.6128,2.0474-.8694,1.2414-1.5508,2.4189-.6833,1.1807-1.3027,2.543a20.8747,20.8747,0,0,1-1.1162,2.3574,11.7791,11.7791,0,0,0-.9927,2.3569q-.6219,2.111-1.3647,4.0318-.7442,1.9248-1.3643,4.0322a30.8794,30.8794,0,0,0-.8687,5.21,2.51,2.51,0,0,0,0,1.1162q.1224.4973.2481,1.1167v.124a.6269.6269,0,0,0,.7446.248,2.1208,2.1208,0,0,0,.8682-.124,20.2761,20.2761,0,0,0,2.8535-1.6128,17.6323,17.6323,0,0,1,1.4888-1.1167,8.81,8.81,0,0,0,1.3642-1.1162q.62-.62,1.3028-1.2407.68-.62,1.3027-1.2407,1.3638-1.3631,2.667-2.543,1.3029-1.1778,2.6675-2.5435c.1645-.1645.3506-.372.5581-.62a3.1924,3.1924,0,0,1,.6826-.62l2.2329-1.8608c.248-.1651.5156-.33.8062-.4966a3.8061,3.8061,0,0,0,.8066-.62q.8664-.7441,1.6748-1.5508.8049-.8049,1.6748-1.5508,1.86-1.3638,3.5977-2.481C213.8281,54.2078,213.9521,54.1653,214.2,54.1653ZM162.5922,77.9842a.22.22,0,0,0,.2481-.2481l-.1241-.124C162.6327,77.6121,162.5922,77.7361,162.5922,77.9842Z" fill="#fff"/><path d="M264.69,45.7293a.5042.5042,0,0,1-.125.3721,1.1347,1.1347,0,0,1-.6192.6206,4.6333,4.6333,0,0,0-.6836.5581,4.3831,4.3831,0,0,1-.6816.5581,7.1409,7.1409,0,0,0-1.3652,1.2407q-.3722.372-.8067.7441t-.93.7447a9.7516,9.7516,0,0,0-1.7363,1.3647,1.5539,1.5539,0,0,1-.6211.3721,1.5569,1.5569,0,0,0-.6191.372c-.4161.4151-.85.8062-1.3028,1.1788a17.0858,17.0858,0,0,0-1.3027,1.1782q-.498.4973-.9316.9306a5.3667,5.3667,0,0,1-1.0547.8062l-.1231.124c-.084,0-.207.0835-.373.2486l-5.9532,5.21-4.0957,3.7222a14.2658,14.2658,0,0,0-2.58,2.4809l-1.2286,1.2408q-.2432.9939-.5517,1.9228t-.6748,1.9229a50.3221,50.3221,0,0,0-1.4712,5.1484q-.6131,2.6659-1.2251,5.2725a52.7593,52.7593,0,0,1-1.4731,5.0864,35.8716,35.8716,0,0,1-2.0835,4.8379,30.33,30.33,0,0,0-1.6748,4.0322q-.6834,2.0464-1.4268,4.1558-.6225,1.3638-1.2407,2.6675a10.3375,10.3375,0,0,1-1.6128,2.4189q-.6219.9917-1.2407,1.8608a7.9547,7.9547,0,0,0-.9922,1.8609,11.7316,11.7316,0,0,1-.9307,1.9228,11.7312,11.7312,0,0,0-.93,1.9229l-.124.124.4961.124q-.25-.1245,0-.372a.2456.2456,0,0,1,.062-.1861.26.26,0,0,0,.062-.186,3.58,3.58,0,0,0,.124-1.3648q-.8693.9918-1.3027,1.5508a6.3028,6.3028,0,0,0-.6821,1.0547q-.9947,1.6106-1.9229,3.2876-.93,1.6743-1.9228,3.4111a15.0357,15.0357,0,0,0-1.0547,1.9854,15.7994,15.7994,0,0,1-1.0542,1.9849q-.6225.9909-1.1787,1.8608-.5582.8664-1.1787,1.7368a7.8693,7.8693,0,0,1-.7442,1.0542,3.6964,3.6964,0,0,0-.62,1.0547c-.2485.4131-.477.7637-.6826,1.0547q-.3113.4329-.6821.93a4.4135,4.4135,0,0,0-.9927,1.6128c-.083.0815-.124.1435-.124.186,0,.04-.0425.1025-.1241.186a7.6039,7.6039,0,0,0-.8681,1.3648,7.8171,7.8171,0,0,1-.8687,1.3647q-.372.3722-.6821.7442a3.2106,3.2106,0,0,1-.6826.6206q-.7442.6189-1.4883,1.24-.7449.62-1.6128,1.2407a6.1458,6.1458,0,0,0-2.4814,2.357,13.594,13.594,0,0,1-1.3028,1.3647q-.68.62-1.3022,1.2407a3.0041,3.0041,0,0,1-1.3648.62,11.5561,11.5561,0,0,1-5.9546.8687l-.124-.1245a2.082,2.082,0,0,0-1.7368-.2481,5.8186,5.8186,0,0,1-5.21-.8681,7.1032,7.1032,0,0,1-1.9234-1.5508,12.1606,12.1606,0,0,1-1.4263-2.0469,5.8942,5.8942,0,0,1-.4965-3.8457q.25-1.3666.5586-2.6675a14.7339,14.7339,0,0,1,.93-2.667,34.478,34.478,0,0,1,2.9776-6.6992q.7441-1.3667,1.4267-2.73a19.423,19.423,0,0,1,1.6748-2.729q1.7388-2.4835,3.1631-4.9624a28.5035,28.5035,0,0,1,3.4116-4.7143,32.5251,32.5251,0,0,0,2.4195-3.2256q1.0554-1.6135,2.2949-3.3491a18.84,18.84,0,0,1,1.6128-2.2955q.8694-1.0554,1.8608-2.2949a48.3036,48.3036,0,0,1,3.66-4.4043q1.9248-2.0463,3.9077-4.1557a13.2279,13.2279,0,0,0,1.0547-1.1787,12.3863,12.3863,0,0,1,1.0547-1.1783c.4126-.415.7847-.8066,1.1162-1.1787a8.8055,8.8055,0,0,1,1.1167-1.0547,12.4573,12.4573,0,0,1,1.1782-1.0542,13.2,13.2,0,0,0,1.1787-1.0547,1.8778,1.8778,0,0,0,.31-.372,1.6784,1.6784,0,0,1,.31-.3721,3.3619,3.3619,0,0,0,.6206-.8686,20.3719,20.3719,0,0,1,2.9775-3.1011,7.0324,7.0324,0,0,1,1.3643-1.2407,7.1492,7.1492,0,0,0,1.3647-1.2408q1.6105-1.4883,3.1636-3.1015a32.0084,32.0084,0,0,1,3.2876-2.9771,4.0351,4.0351,0,0,0,.7441-1.2407,16.0508,16.0508,0,0,0,.3721-2.1089q.1222-1.1169.2485-2.3569.2469-2.1087.5581-4.0943.3084-1.9825.5581-4.0937.2476-1.489.4341-2.9775t.3106-3.2256l-.2486-.2481a.4074.4074,0,0,0-.4961.124q-.4973.7449-.9922,1.4268a4.9,4.9,0,0,0-.7446,1.5508,5.805,5.805,0,0,0-.93,1.4888,14.8794,14.8794,0,0,1-.8066,1.6127,1.2075,1.2075,0,0,0-.31.4341,1.239,1.239,0,0,1-.31.4341c-.2481.415-.4771.8066-.6826,1.1787a9.106,9.106,0,0,1-.6822,1.0542l-.372.7446a2.66,2.66,0,0,1-.4961.62l-.3726.372a8.0331,8.0331,0,0,1-.9922,1.8614,8.0226,8.0226,0,0,0-.9927,1.8608,8.7278,8.7278,0,0,1-1.1162,1.55q-.6225.6834-1.3647,1.4268a8.8521,8.8521,0,0,1-1.3648,1.1167,3.9781,3.9781,0,0,0-1.2407,1.3647l-.248.248a11.6721,11.6721,0,0,1-2.1709,1.0542,3.9866,3.9866,0,0,1-2.2949.1866,4.6354,4.6354,0,0,0-1.1788-.3106,4.4378,4.4378,0,0,1-1.1787-.31.9831.9831,0,0,0-.372-.1241.93.93,0,0,1-.3721-.124,4.35,4.35,0,0,1-3.5977-2.2329q-.4944-.9917-.9306-2.1089a8.9849,8.9849,0,0,1-.5581-2.3574,7.6027,7.6027,0,0,1,0-2.729q.1252-1.489.31-3.04a24.556,24.556,0,0,1,.5586-3.04,53.29,53.29,0,0,1,2.605-8.1255,60.0451,60.0451,0,0,1,3.7217-7.5059q.9916-1.7358,2.0469-3.35a23.6411,23.6411,0,0,1,2.2954-2.977,49.7614,49.7614,0,0,1,4.7138-5.0244,25.5239,25.5239,0,0,1,5.5825-3.9077,17.5175,17.5175,0,0,1,2.8536-1.2408,10.1511,10.1511,0,0,1,3.22-.4961q1.2269.1245,2.2681.31a4.7266,4.7266,0,0,1,2.0234.93,8.3119,8.3119,0,0,1,.981.6826,3.7163,3.7163,0,0,1,.7363.93l.123.124h.1211l.2461.2485a4.9585,4.9585,0,0,1,1.4707,1.24,2.6349,2.6349,0,0,0,.4922.6206,4.7667,4.7667,0,0,0,.6113.7441c.2442.2481.49.4961.7344.7441a4.4056,4.4056,0,0,1,.6191,1.6128v.3726a3.0929,3.0929,0,0,0-.373,1.3643v4.59q0,1.6135.0625,3.0395.0615,1.4276.0625,2.9151,0,3.2277-.1836,5.831-.1875,2.6052-.6758,5.4585A20.6075,20.6075,0,0,0,239.52,59.81a24.1991,24.1991,0,0,1-.49,2.7916,5.0268,5.0268,0,0,0,.7949-.3726,2.8893,2.8893,0,0,0,.4317-.3721q2.2265-1.7358,4.5215-3.4736,2.2938-1.7358,4.6523-3.4736,1.3653-.991,2.8535-1.9849,1.4883-.9916,2.8535-2.1089l.2481-.248q3.8437-2.3556,7.32-4.2183a2.35,2.35,0,0,1,.6191-.4341,5.8006,5.8006,0,0,1,.7442-.31.8528.8528,0,0,0,.373-.0621.8617.8617,0,0,1,.3711-.062ZM221.27,86.42q-.3729.62-.8067,1.2407a9.6609,9.6609,0,0,1-1.0542,1.2407q-.7449.8665-1.4267,1.6744-.6834.8057-1.4268,1.6748a28.5878,28.5878,0,0,1-2.0469,2.2954q-1.0554,1.0524-2.0469,2.1709a17.09,17.09,0,0,0-1.7988,2.1089q-.8085,1.1169-1.6748,2.1088a35.2829,35.2829,0,0,1-2.73,3.1016,7.5637,7.5637,0,0,0-1.0547,1.3027,7.8731,7.8731,0,0,1-1.0542,1.3028q-.4944.6189-.9926,1.3022a10.146,10.146,0,0,0-.8682,1.4268q-.8664,1.3638-1.6748,2.4814-.8057,1.1163-1.6748,2.357-.9917,1.3636-1.8609,2.791-.8664,1.4253-1.7368,2.7915-.7442,1.3638-1.4887,2.6675a19.6909,19.6909,0,0,1-1.7369,2.5429,10.0891,10.0891,0,0,0-.8681,1.4888,15.7123,15.7123,0,0,1-.9927,2.1089,13.7949,13.7949,0,0,0-1.1167,1.8608q-.4944.9918-.9922,1.9849a20.3321,20.3321,0,0,1-.8686,2.5434q-.4944,1.177-.9922,2.543a12.2428,12.2428,0,0,1-.6206,1.8609,6.5123,6.5123,0,0,1-.9922,1.6127,3.077,3.077,0,0,0-.6206.9307,2.45,2.45,0,0,0,0,1.55,4.0587,4.0587,0,0,1,1.1167-.3721,2.9049,2.9049,0,0,0,.62-.372,15.3316,15.3316,0,0,1,1.9853-1.0547,7.4222,7.4222,0,0,0,1.8609-1.1782q1.7388-1.6136,3.35-3.35,1.6135-1.7387,2.977-3.4736a12.791,12.791,0,0,1,1.5508-1.7368q.8087-.7442,1.6748-1.6128,1.1163-1.3666,2.0469-2.73.9309-1.3659,2.0469-2.729.7449-.9946,1.4267-1.9849.6805-.9945,1.4268-1.9848,1.489-2.3585,2.7915-4.7144,1.3023-2.3583,2.667-4.7143a54.2635,54.2635,0,0,0,2.8535-5.52q1.2386-2.7914,2.605-5.6446a34.4785,34.4785,0,0,0,1.5508-3.2876,33.4334,33.4334,0,0,1,1.5508-3.2876,50.82,50.82,0,0,0,3.35-7.8154.5129.5129,0,0,0,.124-.3721l.248-.3725a1.98,1.98,0,0,1,.062-.4961,5.077,5.077,0,0,0,.0621-.9922q-.9946.7442-1.6748,1.3643A4.6456,4.6456,0,0,0,221.27,86.42Zm9.6762-51.98a4.591,4.591,0,0,0-.4961.1861.5443.5443,0,0,1-.248.062q-1.3668.8694-2.6675,1.8608A11.332,11.332,0,0,0,225.24,38.906q-.7442.9947-1.4268,1.9849a7.4016,7.4016,0,0,1-1.6748,1.7368,4.4285,4.4285,0,0,0-1.2407,1.2407,14.7376,14.7376,0,0,1-.8062,1.6128q-.4365.7441-.9306,1.4888a11.1954,11.1954,0,0,0-.93,1.3648q-.4365.744-.9307,1.4882-.4973.8694-.9922,1.6748a10.4027,10.4027,0,0,0-.8686,1.7989q-.6219,1.861-1.1782,3.7841-.5589,1.9248-1.1787,4.0318a6.5993,6.5993,0,0,0-.3721,1.3027q-.1253.6826-.2481,1.6743c.4126-.1645.6607-.2671.7442-.31q.1223-.0609.3721-.1861a1.9251,1.9251,0,0,1,.372-.4961q1.117-1.3636,2.2334-2.7294,1.1163-1.3631,2.357-2.729a39.4913,39.4913,0,0,0,4.4663-5.4585Q224.7426,49.7,226.48,47.156a38.7862,38.7862,0,0,1,3.8457-4.7763,1.4313,1.4313,0,0,0,.4961-.9922q0-1.3638.062-2.6055.0608-1.2385.062-2.4809A6.9079,6.9079,0,0,0,230.9462,34.44Z" fill="#fff"/></svg>